<?xml version="1.0" encoding="UTF-8" standalone="no"?>
<!-- Created with Inkscape (http://www.inkscape.org/) -->

<svg xmlns:dc="http://purl.org/dc/elements/1.1/" xmlns:cc="http://creativecommons.org/ns#" xmlns:rdf="http://www.w3.org/1999/02/22-rdf-syntax-ns#" xmlns:svg="http://www.w3.org/2000/svg" xmlns="http://www.w3.org/2000/svg" xmlns:sodipodi="http://sodipodi.sourceforge.net/DTD/sodipodi-0.dtd" xmlns:inkscape="http://www.inkscape.org/namespaces/inkscape" id="svg2" version="1.1" inkscape:version="0.47+devel r9578" width="276.48456" height="203.63347" xml:space="preserve" sodipodi:docname="InkscapePDFLaTeX.pdf.2010_07_15_17_00_37.0.svg" inkscape:export-filename="/home/jack/Current Documents/LaTeX/Presentations/Graphics/InkscapePDFLaTeX_Example.png" inkscape:export-xdpi="600" inkscape:export-ydpi="600"><metadata id="metadata8"><rdf:RDF><cc:Work rdf:about=""><dc:format>image/svg+xml</dc:format><dc:type rdf:resource="http://purl.org/dc/dcmitype/StillImage" /><dc:title></dc:title></cc:Work></rdf:RDF></metadata><defs id="defs6"><clipPath clipPathUnits="userSpaceOnUse" id="clipPath244"><path d="m 0,0 212.52798,0 0,156.5262 L 0,156.5262 0,0 z" id="path246" inkscape:connector-curvature="0" /></clipPath><clipPath clipPathUnits="userSpaceOnUse" id="clipPath248"><path d="m 0,0 212.52798,0 0,156.5262 L 0,156.5262 0,0 z" id="path250" inkscape:connector-curvature="0" /></clipPath><mask maskUnits="userSpaceOnUse" x="0" y="0" width="1" height="1" id="mask252"><g id="g254"><g clip-path="url(#clipPath248)" id="g256"><path d="m 0,0 212.52798,0 0,156.5262 L 0,156.5262 0,0 z" style="fill:#ffffff;fill-opacity:0.5;fill-rule:nonzero;stroke:none" id="path258" inkscape:connector-curvature="0" /></g></g></mask><clipPath clipPathUnits="userSpaceOnUse" id="clipPath260"><path d="m 0,0 212.52798,0 0,156.5262 L 0,156.5262 0,0 z" id="path262" inkscape:connector-curvature="0" /></clipPath><clipPath clipPathUnits="userSpaceOnUse" id="clipPath264"><path d="M 0,0 213,0 213,157 0,157 0,0 z" id="path266" inkscape:connector-curvature="0" /></clipPath><pattern patternUnits="userSpaceOnUse" x="0" y="0" width="213" height="157" id="pattern268"><g id="g270" /><g id="g272"><g clip-path="url(#clipPath264)" id="g274"><g id="g276"><path d="m 99.188,46.176 45.668,0 0,-41.973 -45.668,0 0,41.973 z" style="fill:#cccccc;fill-opacity:1;fill-rule:nonzero;stroke:none" id="path278" /></g></g></g></pattern><clipPath clipPathUnits="userSpaceOnUse" id="clipPath280"><path d="m 0,0 212.52798,0 0,156.5262 L 0,156.5262 0,0 z" id="path282" inkscape:connector-curvature="0" /></clipPath><mask maskUnits="userSpaceOnUse" x="0" y="0" width="1" height="1" id="mask284"><g id="g286"><g clip-path="url(#clipPath280)" id="g288"><path d="m 0,0 212.52798,0 0,156.5262 L 0,156.5262 0,0 z" style="fill:#ffffff;fill-opacity:0.5;fill-rule:nonzero;stroke:none" id="path290" inkscape:connector-curvature="0" /></g></g></mask><clipPath clipPathUnits="userSpaceOnUse" id="clipPath292"><path d="m 0,0 212.52798,0 0,156.5262 L 0,156.5262 0,0 z" id="path294" inkscape:connector-curvature="0" /></clipPath><clipPath clipPathUnits="userSpaceOnUse" id="clipPath296"><path d="M 0,0 213,0 213,157 0,157 0,0 z" id="path298" inkscape:connector-curvature="0" /></clipPath><pattern patternUnits="userSpaceOnUse" x="0" y="0" width="213" height="157" id="pattern300"><g id="g302" /><g id="g304"><g clip-path="url(#clipPath296)" id="g306"><g id="g308"><text transform="matrix(1,0,0,-1,155.08119,55.056006)" id="text310"><tspan style="fill:#0000ff;fill-opacity:1;fill-rule:nonzero;stroke:none;font-family:Arial;font-variant:normal;font-weight:normal;font-size:9.6;writing-mode:lr;-inkscape-font-specification:Arial" x="0 2.6592 5.856 11.2032 16.5408 21.3408 26.688 32.0256 35.232 40.5792 45.9168" y="0" sodipodi:role="line" id="tspan312">transparent</tspan></text>

</g></g></g></pattern><clipPath clipPathUnits="userSpaceOnUse" id="clipPath566"><path d="m 0,0 212.52798,0 0,156.5262 L 0,156.5262 0,0 z" id="path568" inkscape:connector-curvature="0" /></clipPath><clipPath clipPathUnits="userSpaceOnUse" id="clipPath570"><path d="m 0,0 212.52798,0 0,156.5262 L 0,156.5262 0,0 z" id="path572" inkscape:connector-curvature="0" /></clipPath><mask maskUnits="userSpaceOnUse" x="0" y="0" width="1" height="1" id="mask574"><g id="g576"><g clip-path="url(#clipPath570)" id="g578"><path d="m 0,0 212.52798,0 0,156.5262 L 0,156.5262 0,0 z" style="fill:#ffffff;fill-opacity:0.5;fill-rule:nonzero;stroke:none" id="path580" inkscape:connector-curvature="0" /></g></g></mask><clipPath clipPathUnits="userSpaceOnUse" id="clipPath582"><path d="m 0,0 212.52798,0 0,156.5262 L 0,156.5262 0,0 z" id="path584" inkscape:connector-curvature="0" /></clipPath><clipPath clipPathUnits="userSpaceOnUse" id="clipPath586"><path d="M 0,0 213,0 213,157 0,157 0,0 z" id="path588" inkscape:connector-curvature="0" /></clipPath><pattern patternUnits="userSpaceOnUse" x="0" y="0" width="213" height="157" id="pattern590"><g id="g592" /><g id="g594"><g clip-path="url(#clipPath586)" id="g596"><g id="g598"><path d="m 99.188,46.176 45.668,0 0,-41.973 -45.668,0 0,41.973 z" style="fill:#cccccc;fill-opacity:1;fill-rule:nonzero;stroke:none" id="path600" /></g></g></g></pattern>











</defs><sodipodi:namedview pagecolor="#ffffff" bordercolor="#666666" borderopacity="1" objecttolerance="10" gridtolerance="10" guidetolerance="10" inkscape:pageopacity="0" inkscape:pageshadow="2" inkscape:window-width="1440" inkscape:window-height="852" id="namedview4" showgrid="false" fit-margin-top="0" fit-margin-left="0" fit-margin-right="0" fit-margin-bottom="0" inkscape:zoom="1.8461485" inkscape:cx="33.133663" inkscape:cy="101.84727" inkscape:window-x="-4" inkscape:window-y="25" inkscape:window-maximized="1" inkscape:current-layer="g10" /><g id="g10" inkscape:groupmode="layer" inkscape:label="InkscapePDFLaTeX" transform="matrix(1.25,0,0,-1.25,-573.01641,624.78399)"><g id="g242" transform="matrix(1.04073,0,0,1.04073,64.512,333.459)" /><g id="g3571"><g transform="matrix(1.04073,0,0,1.04073,458.41313,336.92568)" id="g320"><g id="g322" /><g id="g324" mask="url(#mask252)"><g id="g326" /><g id="g328"><g id="g330" clip-path="url(#clipPath260)"><g id="g332"><path inkscape:connector-curvature="0" id="path334" style="fill:url(#pattern268);fill-opacity:1;fill-rule:nonzero;stroke:none" d="m 0,0 212.52798,0 0,156.5262 L 0,156.5262 0,0 z" /></g></g></g></g></g><path inkscape:connector-curvature="0" id="path336" style="fill:#000000;fill-opacity:1;fill-rule:nonzero;stroke:none" d="m 534.06171,479.93551 c 8.3581,-29.83565 -36.56396,-40.47919 -25.86422,-77.2742" /><path inkscape:connector-curvature="0" id="path338" style="fill:#000000;fill-opacity:1;fill-rule:nonzero;stroke:none" d="m 658.57465,413.82418 c -9.76517,-21.82619 -31.11158,-41.20562 -45.41434,-55.50734" /><text style="font-size:12.48875999px" y="-486.05615" x="599.59778" id="text340" transform="scale(1,-1)"><tspan id="tspan342" sodipodi:role="line" y="-486.05615" x="599.59778 602.3653 606.78131 614.54431 619.53979 624.53534 629.32098 632.65802 637.6535 642.64899 646.53552 650.95154 655.37756 660.37305 664.78912" style="font-size:9.99100876px;font-variant:normal;font-weight:normal;writing-mode:lr-tb;fill:#000000;fill-opacity:1;fill-rule:nonzero;stroke:none;font-family:Times New Roman;-inkscape-font-specification:TimesNewRoman">\emph{Inkscape}</tspan></text>
<text style="font-size:12.48875999px" y="-369.54617" x="644.59497" id="text344" transform="scale(1,-1)"><tspan id="tspan346" sodipodi:role="line" y="-369.54617" x="644.59497 647.922 652.34802" style="font-size:9.99100876px;font-variant:normal;font-weight:normal;writing-mode:lr-tb;fill:#ff0000;fill-opacity:1;fill-rule:nonzero;stroke:none;font-family:Times New Roman;-inkscape-font-specification:TimesNewRoman">red</tspan></text>
<text style="font-size:12.48875999px" y="77.829033" x="577.64935" id="text348" transform="matrix(0.70710678,0.70710678,0.70710678,-0.70710678,0,0)"><tspan id="tspan350" sodipodi:role="line" y="77.829033" x="577.64935 582.6449 587.64038 590.13812 595.13361 598.46063 602.88666 607.88214 612.30817" style="font-size:9.9910078px;font-variant:normal;font-weight:normal;writing-mode:lr-tb;fill:#000000;fill-opacity:1;fill-rule:nonzero;stroke:none;font-family:Times New Roman;-inkscape-font-specification:TimesNewRoman">45 graden</tspan></text>
<g id="g352" transform="matrix(1.04073,0,0,-1.04073,458.41313,499.82719)"><path inkscape:connector-curvature="0" id="path354" style="fill:none;stroke:#ff0000;stroke-width:0.80000001;stroke-linecap:butt;stroke-linejoin:miter;stroke-miterlimit:4;stroke-opacity:1;stroke-dasharray:none" d="m 0.398,0.398 211.73,0 0,155.727 -211.73,0 0,-155.727 z" /></g><text style="font-size:12.48875999px" y="-470.64297" x="562.31042" id="text356" transform="scale(1,-1)"><tspan id="tspan358" sodipodi:role="line" y="-470.64297" x="562.31042 565.13232 566.53815 567.66486 568.79663 573.02942 575.85132 577.54138 580.36829 581.7691 583.17493 584.57568 587.40265 588.80341 590.20929 591.336 594.1629 595.56366 596.96954 599.5072 601.19727 602.59802 605.13568 607.96259 612.19537 615.0755 616.76556 619.30322 622.26215 625.08398 626.77405 629.15436 631.9762 633.38208 634.7879 636.19379 637.88385 640.70569 643.24335 644.93341 647.75525 649.44531 651.13538 653.67303 656.05334 658.87518 660.56525" style="font-size:5.07528019px;font-variant:normal;font-weight:normal;writing-mode:lr-tb;fill:#000000;fill-opacity:1;fill-rule:nonzero;stroke:none;font-family:Arial;-inkscape-font-specification:Arial">$\lim_{n \to \infty}\sum_{k=1}^n \frac{1}{k^2}$</tspan></text>
<text style="font-size:12.48875999px" y="-489.93985" x="483.64001" id="text360" transform="scale(1,-1)"><tspan id="tspan362" sodipodi:role="line" y="-489.93985" x="483.64001 490.30402 492.52203 498.08701 503.08252 505.84003 511.40503 513.62305 519.18805 521.94556 524.71301 530.26807 535.83301 539.17004 544.72504 547.49255 550.81952 556.37457 561.93951 564.69708 570.26202 578.59454 583.66718 589.22217" style="font-size:9.99100876px;font-variant:normal;font-weight:normal;writing-mode:lr-tb;fill:#000000;fill-opacity:1;fill-rule:nonzero;stroke:none;font-family:Arial;-inkscape-font-specification:Arial">Einstein \eqref{eq:emc2}</tspan><tspan id="tspan364" sodipodi:role="line" y="-443.75153" x="630.78461 636.3396 641.89459" style="font-size:9.99100876px;font-variant:normal;font-weight:normal;writing-mode:lr-tb;fill:#000000;fill-opacity:1;fill-rule:nonzero;stroke:none;font-family:Arial;-inkscape-font-specification:Arial">ooo</tspan></text>
<g id="g366" transform="matrix(1.04073,0,0,-1.04073,458.41313,499.82719)"><path inkscape:connector-curvature="0" id="path368" style="fill:none;stroke:#000000;stroke-width:0.80000001;stroke-linecap:butt;stroke-linejoin:miter;stroke-miterlimit:4;stroke-opacity:1;stroke-dasharray:none" d="m 173.641,38.402 0,25.196" /></g><text style="font-size:12.48875999px" y="-380.31396" x="561.6427" id="text370" transform="scale(1,-1)"><tspan id="tspan372" sodipodi:role="line" y="-380.31396" x="561.6427 563.02643 564.40521 565.51917 568.29669 570.79443 572.46796 575.5202 576.62921 579.41168 583.01843 585.8009 588.57843 590.25189 591.63568 594.41321 596.91095 598.29468 599.9682 602.74567 603.85968 606.35742 609.13495" style="font-size:4.99550438px;font-variant:normal;font-weight:normal;writing-mode:lr-tb;fill:#000000;fill-opacity:1;fill-rule:nonzero;stroke:none;font-family:Arial;-inkscape-font-specification:Arial">\tiny Flowed text also </tspan><tspan id="tspan374" sodipodi:role="line" y="-374.06958" x="561.6427 565.24945 568.03192 569.70044 572.19818 574.69592 576.07471 578.37762 581.42487 584.20734 585.31635 587.81409 590.11206 591.22607 593.72382 596.02173 598.79926 601.09717 602.4809 605.25842 607.75616 609.13995" style="font-size:4.99550438px;font-variant:normal;font-weight:normal;writing-mode:lr-tb;fill:#000000;fill-opacity:1;fill-rule:nonzero;stroke:none;font-family:Arial;-inkscape-font-specification:Arial">works. This is a test </tspan><tspan id="tspan376" sodipodi:role="line" y="-367.8252" x="561.6427 563.02643 565.80396 568.3017 569.68542 573.78674 575.16553 577.948 582.04932 584.54706 587.32953 590.10706 594.21338 595.5921 598.37463 601.1521 602.53589 606.63715 607.75116 609.12994" style="font-size:4.99550438px;font-variant:normal;font-weight:normal;writing-mode:lr-tb;fill:#000000;fill-opacity:1;fill-rule:nonzero;stroke:none;font-family:Arial;-inkscape-font-specification:Arial">text to see that it </tspan><tspan id="tspan378" sodipodi:role="line" y="-361.58081" x="561.6427 563.02643 565.80396 569.97015 572.74768 575.53015 577.19366 579.97119 582.75366 585.53119 588.02893 589.69244 591.07617 594.68292 597.46545 599.13391 601.63165 603.01044" style="font-size:4.99550438px;font-variant:normal;font-weight:normal;writing-mode:lr-tb;fill:#000000;fill-opacity:1;fill-rule:nonzero;stroke:none;font-family:Arial;-inkscape-font-specification:Arial">\emph{does} work. </tspan><tspan id="tspan380" sodipodi:role="line" y="-355.33646" x="561.6427 564.97467 567.7522 569.13593 570.51471 572.5329 573.64685 575.02563 577.04382 579.82629 582.60382 583.71777 586.21558 588.23376 591.84052 594.62299 596.2915 598.78925 601.28699 603.30518 604.68396 607.46643 609.13495" style="font-size:4.99550438px;font-variant:normal;font-weight:normal;writing-mode:lr-tb;fill:#000000;fill-opacity:1;fill-rule:nonzero;stroke:none;font-family:Arial;-inkscape-font-specification:Arial">But, it only works for </tspan><tspan id="tspan382" sodipodi:role="line" y="-349.09207" x="561.6427 563.31116 566.08868 568.58643 569.97015 572.74768 575.53015 578.30768 581.09015 582.19916 584.98169 586.65015 600.27789 601.65668 602.77063 605.54816 609.15991" style="font-size:4.99550438px;font-variant:normal;font-weight:normal;writing-mode:lr-tb;fill:#000000;fill-opacity:1;fill-rule:nonzero;stroke:none;font-family:Arial;-inkscape-font-specification:Arial">rectangular flow </tspan><tspan id="tspan384" sodipodi:role="line" y="-342.84769" x="561.6427 564.14044 566.91791 569.70044 572.47791 575.26044 577.75818" style="font-size:4.99550438px;font-variant:normal;font-weight:normal;writing-mode:lr-tb;fill:#000000;fill-opacity:1;fill-rule:nonzero;stroke:none;font-family:Arial;-inkscape-font-specification:Arial">shapes.</tspan></text>
<g id="g386" transform="matrix(1.04073,0,0,-1.04073,458.41313,499.82719)"><path inkscape:connector-curvature="0" id="path388" style="fill:none;stroke:#0000ff;stroke-width:0.96912003;stroke-linecap:butt;stroke-linejoin:miter;stroke-miterlimit:4;stroke-opacity:1;stroke-dasharray:none" d="m 167.594,144.371 -1.262,0 0,-11.101 1.363,0 0,3.96 c 0.575,-0.718 1.309,-1.078 2.203,-1.082 0.493,0.004 0.957,0.102 1.403,0.301 0.437,0.199 0.801,0.481 1.09,0.84 0.281,0.363 0.507,0.797 0.672,1.305 0.16,0.511 0.238,1.058 0.242,1.636 -0.004,1.379 -0.344,2.446 -1.024,3.196 -0.683,0.754 -1.5,1.125 -2.453,1.129 -0.949,-0.004 -1.695,-0.399 -2.234,-1.192 l 0,1.008 z m -0.012,-4.082 c -0.004,0.965 0.125,1.66 0.391,2.09 0.425,0.703 1.007,1.055 1.742,1.055 0.594,0 1.109,-0.258 1.543,-0.778 0.433,-0.515 0.648,-1.285 0.652,-2.312 -0.004,-1.047 -0.211,-1.824 -0.625,-2.324 -0.418,-0.5 -0.922,-0.75 -1.508,-0.75 -0.601,0 -1.117,0.261 -1.547,0.777 -0.437,0.519 -0.652,1.266 -0.648,2.242 z m 7.359,4.082 0,-11.101 1.364,0 0,11.101 -1.364,0 z m 8.754,0 0,-1.18 c -0.629,0.911 -1.48,1.36 -2.55,1.364 -0.481,-0.004 -0.926,-0.09 -1.332,-0.274 -0.415,-0.179 -0.719,-0.41 -0.918,-0.683 -0.2,-0.274 -0.34,-0.61 -0.418,-1.012 -0.059,-0.266 -0.086,-0.691 -0.082,-1.273 l 0,-4.985 1.363,0 0,4.461 c 0,0.715 0.027,1.191 0.082,1.438 0.086,0.359 0.265,0.644 0.543,0.847 0.277,0.207 0.621,0.309 1.031,0.305 0.406,0.004 0.789,-0.102 1.152,-0.313 0.356,-0.207 0.61,-0.492 0.762,-0.855 0.145,-0.359 0.219,-0.883 0.223,-1.574 l 0,-4.309 1.363,0 0,8.043 -1.219,0 z m 8.864,-2.59 1.406,0.176 c -0.223,0.824 -0.637,1.465 -1.235,1.918 -0.601,0.453 -1.367,0.676 -2.3,0.68 -1.176,-0.004 -2.11,-0.364 -2.797,-1.086 -0.695,-0.727 -1.039,-1.742 -1.035,-3.051 -0.004,-1.348 0.343,-2.398 1.043,-3.148 0.695,-0.747 1.601,-1.118 2.714,-1.122 1.075,0.004 1.95,0.368 2.633,1.098 0.68,0.734 1.024,1.766 1.024,3.09 0,0.082 -0.004,0.203 -0.008,0.363 l -5.996,0 c 0.047,0.887 0.297,1.563 0.746,2.031 0.449,0.469 1.012,0.704 1.684,0.704 0.5,0 0.925,-0.129 1.277,-0.395 0.351,-0.258 0.633,-0.68 0.844,-1.258 z m -4.477,-2.203 4.492,0 c -0.062,-0.676 -0.234,-1.183 -0.515,-1.523 -0.438,-0.524 -1,-0.785 -1.688,-0.785 -0.629,0 -1.156,0.21 -1.582,0.628 -0.426,0.422 -0.66,0.981 -0.707,1.68 z" /></g><text style="font-size:12.48875999px" y="-360.71524" x="639.26007" id="text390" transform="scale(1,-1)"><tspan id="tspan392" sodipodi:role="line" y="-360.71524" x="639.26007 644.81506 648.15204 653.71704 659.27203" style="font-size:9.99100876px;font-variant:normal;font-weight:normal;writing-mode:lr-tb;fill:#00ff00;fill-opacity:1;fill-rule:nonzero;stroke:none;font-family:Arial;-inkscape-font-specification:Arial">green</tspan></text>
<path inkscape:connector-curvature="0" id="path394" style="fill:#666666;fill-opacity:1;fill-rule:nonzero;stroke:none" d="m 482.55703,347.26221 72.68458,0 0,-4.28885 -72.68458,0 0,4.28885 z" /><text style="font-size:12.48875999px" y="-347.2627" x="482.55768" id="text396" transform="scale(1,-1)"><tspan id="tspan398" sodipodi:role="line" y="-347.2627" x="482.55768 485.7944 487.76526 489.83228 493.40552 497.61166 500.7843 504.87024 506.8732 510.76688 514.98102 516.98395 520.98981 524.22656 526.80627 529.98694 531.95782 534.02484 538.23102" style="font-size:8.01170349px;font-variant:normal;font-weight:normal;writing-mode:lr-tb;fill:#000000;fill-opacity:1;fill-rule:nonzero;stroke:none;font-family:AdobeGaramondPro;-inkscape-font-specification:AdobeGaramondPro">aligned on baseline</tspan></text>
<path inkscape:connector-curvature="0" id="path400" style="fill:#b3b3b3;fill-opacity:1;fill-rule:nonzero;stroke:none" d="m 468.88912,476.74776 29.39646,0 0,-77.57498 -29.39646,0 0,77.57498 z" /><text style="font-size:12.48875999px" y="-468.8876" x="-463.75851" id="text402" transform="matrix(0,-1,-1,0,0,0)"><tspan id="tspan404" sodipodi:role="line" y="-468.8876" x="-463.75851 -458.763 -453.76749 -451.26974 -446.27423 -441.84824 -436.85272 -433.52573 -429.0997 -424.67368" style="font-size:9.99100876px;font-variant:normal;font-weight:normal;writing-mode:lr-tb;fill:#000000;fill-opacity:1;fill-rule:nonzero;stroke:none;font-family:Times New Roman;-inkscape-font-specification:TimesNewRoman">90 degrees</tspan></text>
<text style="font-size:12.48875999px" y="498.28513" x="420.42267" id="text406" transform="matrix(0,1,1,0,0,0)"><tspan id="tspan408" sodipodi:role="line" y="498.28513" x="420.42267 425.41818 430.4137 432.91144 437.90695 442.33295 447.32846 450.65546 455.08148 459.50751" style="font-size:9.99100876px;font-variant:normal;font-weight:normal;writing-mode:lr-tb;fill:#000000;fill-opacity:1;fill-rule:nonzero;stroke:none;font-family:Times New Roman;-inkscape-font-specification:TimesNewRoman">90 degrees</tspan></text>
<text style="font-size:12.48875999px" y="-452.20947" x="639.12671" id="text410" transform="scale(1,-1)"><tspan id="tspan412" sodipodi:role="line" y="-452.20947" x="639.12671 644.6817 650.23669" style="font-size:9.99100876px;font-variant:normal;font-weight:normal;writing-mode:lr-tb;fill:#000000;fill-opacity:1;fill-rule:nonzero;stroke:none;font-family:Arial;-inkscape-font-specification:Arial">ooo</tspan><tspan id="tspan414" sodipodi:role="line" y="-436.09912" x="622.4425 627.9975 633.55249" style="font-size:9.99100876px;font-variant:normal;font-weight:normal;writing-mode:lr-tb;fill:#000000;fill-opacity:1;fill-rule:nonzero;stroke:none;font-family:Arial;-inkscape-font-specification:Arial">ooo</tspan><tspan id="tspan416" sodipodi:role="line" y="-455.0025" x="572.17316 577.72815 582.72363" style="font-size:9.99100876px;font-variant:normal;font-weight:normal;writing-mode:lr-tb;fill:#000000;fill-opacity:1;fill-rule:nonzero;stroke:none;font-family:Arial;-inkscape-font-specification:Arial">$x$</tspan><tspan id="tspan418" sodipodi:role="line" y="-450.44583" x="582.04596 587.60095 592.59644" style="font-size:9.99100876px;font-variant:normal;font-weight:normal;writing-mode:lr-tb;fill:#000000;fill-opacity:1;fill-rule:nonzero;stroke:none;font-family:Arial;-inkscape-font-specification:Arial">$y$</tspan><tspan id="tspan420" sodipodi:role="line" y="-444.74997" x="592.67822 598.23322 603.2287" style="font-size:9.99100876px;font-variant:normal;font-weight:normal;writing-mode:lr-tb;fill:#000000;fill-opacity:1;fill-rule:nonzero;stroke:none;font-family:Arial;-inkscape-font-specification:Arial">$z$</tspan></text>
<g id="g422" transform="matrix(1.04073,0,0,-1.04073,458.41313,499.82719)"><path inkscape:connector-curvature="0" id="path424" style="fill:none;stroke:#000000;stroke-width:0.40000001;stroke-linecap:butt;stroke-linejoin:miter;stroke-miterlimit:4;stroke-opacity:1;stroke-dasharray:none" d="m 66.488,135.805 3.168,0.453 c 0.274,-2.324 0.785,-4.586 1.504,-6.778 l -2.961,-1.003 c 0,0 -0.222,1.074 -1.41,1.937 -0.594,0.434 -1.199,0.082 -1.797,-0.445 -0.594,-0.528 -1.164,-1.235 -1.75,-1.41 -0.586,-0.176 -1.238,-0.055 -1.793,0.289 -0.554,0.343 -1.004,0.906 -1.176,1.574 -0.168,0.668 -0.039,1.379 0.293,1.941 0.332,0.563 0.86,0.973 1.465,1.082 0.602,0.11 1.438,-0.25 2.211,-0.445 0.774,-0.195 1.473,-0.234 1.84,0.398 0.731,1.266 0.406,2.407 0.406,2.407 z m 1.711,-7.328 2.961,1.003 c 0.723,-2.191 1.653,-4.316 2.766,-6.359 l -2.746,-1.484 c 0,0 -0.41,1.023 -1.723,1.664 -0.656,0.32 -1.184,-0.125 -1.676,-0.742 -0.492,-0.621 -0.933,-1.407 -1.476,-1.68 -0.547,-0.27 -1.203,-0.262 -1.797,-0.024 -0.594,0.239 -1.125,0.711 -1.395,1.329 -0.273,0.617 -0.258,1.332 -0.031,1.929 0.227,0.602 0.672,1.09 1.234,1.305 0.563,0.211 1.43,0.012 2.211,-0.043 0.782,-0.051 1.473,0.035 1.715,0.711 0.481,1.355 -0.043,2.391 -0.043,2.391 z m 2.981,-6.84 2.746,1.484 c 1.113,-2.047 2.41,-4.016 3.859,-5.906 l -2.515,-1.899 c 0,0 -0.571,0.961 -1.981,1.399 -0.703,0.215 -1.156,-0.313 -1.551,-1.004 -0.39,-0.691 -0.711,-1.547 -1.211,-1.898 -0.5,-0.356 -1.152,-0.454 -1.777,-0.309 -0.625,0.141 -1.215,0.523 -1.578,1.09 -0.359,0.566 -0.453,1.269 -0.32,1.898 0.132,0.629 0.488,1.184 1.011,1.485 0.52,0.304 1.407,0.25 2.188,0.328 0.781,0.074 1.453,0.269 1.578,0.976 0.25,1.422 -0.449,2.356 -0.449,2.356 z m 4.09,-6.321 2.515,1.899 c 1.453,-1.891 3.063,-3.699 4.801,-5.422 l -2.273,-2.246 c 0,0 -0.711,0.894 -2.192,1.137 -0.738,0.117 -1.117,-0.477 -1.414,-1.227 -0.297,-0.75 -0.504,-1.648 -0.957,-2.074 -0.449,-0.426 -1.094,-0.613 -1.734,-0.559 -0.645,0.051 -1.286,0.348 -1.723,0.86 -0.875,1.023 -0.742,2.714 0.211,3.476 0.48,0.383 1.371,0.461 2.141,0.653 0.769,0.191 1.414,0.484 1.433,1.214 0.043,1.457 -0.808,2.289 -0.808,2.289 z m 5.043,-5.769 2.273,2.246 c 1.734,-1.719 3.602,-3.355 5.57,-4.898 l -2.019,-2.532 c 0,0 -0.824,0.817 -2.344,0.879 -0.758,0.028 -1.066,-0.621 -1.273,-1.41 -0.204,-0.789 -0.301,-1.719 -0.707,-2.203 -0.805,-0.965 -2.504,-1.055 -3.504,-0.145 -1.004,0.911 -1.082,2.625 -0.223,3.516 0.43,0.445 1.312,0.645 2.062,0.938 0.75,0.292 1.364,0.667 1.286,1.406 -0.153,1.476 -1.121,2.203 -1.121,2.203 z m 5.824,-5.184 2.019,2.532 c 1.965,-1.543 4.035,-2.997 6.18,-4.352 l -1.746,-2.75 c 0,0 -0.918,0.734 -2.449,0.629 -0.766,-0.051 -1,-0.738 -1.121,-1.555 -0.118,-0.812 -0.118,-1.754 -0.465,-2.281 -0.703,-1.059 -2.395,-1.344 -3.496,-0.551 -1.106,0.789 -1.379,2.492 -0.621,3.492 0.378,0.496 1.246,0.801 1.964,1.184 0.719,0.379 1.293,0.828 1.129,1.562 -0.324,1.465 -1.394,2.09 -1.394,2.09 z m 6.453,-4.57 1.746,2.75 c 2.144,-1.355 4.363,-2.609 6.633,-3.766 l -1.465,-2.906 c 0,0 -0.984,0.649 -2.504,0.387 -0.758,-0.129 -0.922,-0.836 -0.957,-1.66 -0.039,-0.825 0.059,-1.758 -0.238,-2.321 -0.594,-1.121 -2.246,-1.582 -3.426,-0.918 -1.18,0.668 -1.633,2.336 -0.977,3.411 0.325,0.539 1.161,0.937 1.84,1.394 0.68,0.453 1.203,0.961 0.965,1.68 -0.48,1.433 -1.617,1.949 -1.617,1.949 z m 6.914,-3.922 1.465,2.906 c 2.265,-1.156 4.582,-2.207 6.918,-3.148 l -1.172,-3 c 0,0 -1.027,0.551 -2.5,0.152 -0.738,-0.195 -0.832,-0.914 -0.793,-1.73 0.043,-0.817 0.226,-1.727 -0.012,-2.309 -0.48,-1.164 -2.066,-1.781 -3.297,-1.242 -1.234,0.535 -1.843,2.137 -1.3,3.27 0.273,0.566 1.062,1.043 1.691,1.558 0.629,0.52 1.101,1.07 0.793,1.762 -0.613,1.375 -1.793,1.781 -1.793,1.781 z m 7.211,-3.242 1.172,3 c 0.726,-0.297 1.461,-0.582 2.191,-0.856 1.496,-0.546 3.047,-0.98 4.641,-1.328 l -0.684,-3.121 c 0,0 -1.058,0.364 -2.433,-0.222 -0.688,-0.293 -0.7,-1 -0.547,-1.797 0.148,-0.793 0.465,-1.664 0.308,-2.27 -0.152,-0.601 -0.597,-1.105 -1.187,-1.406 -0.586,-0.297 -1.317,-0.391 -1.985,-0.18 -0.589,0.184 -1.086,0.586 -1.414,1.078 -0.382,0.614 -0.504,1.371 -0.261,2.024 0.226,0.625 1.05,1.203 1.632,1.816 l 0,0 c 0.473,0.488 0.782,1 0.555,1.551 -0.015,0.039 -0.039,0.082 -0.058,0.121 -0.731,1.297 -1.93,1.59 -1.93,1.59 z m 7.32,-2.305 0.684,3.121 c 2.32,-0.504 4.734,-0.816 7.203,-1.004 l -0.242,-3.195 c 0,0 -1.133,0.215 -2.414,-0.578 -0.641,-0.398 -0.536,-1.102 -0.262,-1.867 0.269,-0.762 0.707,-1.582 0.644,-2.203 -0.062,-0.621 -0.425,-1.188 -0.945,-1.575 -0.523,-0.39 -1.207,-0.593 -1.883,-0.5 -0.675,0.098 -1.277,0.493 -1.675,1.012 -0.399,0.52 -0.59,1.168 -0.481,1.774 0.113,0.609 0.746,1.261 1.207,1.918 0.465,0.656 0.758,1.304 0.293,1.875 -0.934,1.14 -2.129,1.222 -2.129,1.222 z m 7.645,-1.078 0.242,3.195 c 1.316,-0.101 2.648,-0.164 3.988,-0.203 1.188,-0.031 2.391,-0.039 3.606,-0.035 L 129.52,89 c 0,0 -1.172,0.129 -2.379,-0.785 -0.606,-0.461 -0.422,-1.149 -0.078,-1.883 0.343,-0.73 0.843,-1.504 0.839,-2.125 -0.007,-1.16 -1.039,-2.234 -2.242,-2.352 l 0,0 c -0.09,-0.007 -0.183,-0.011 -0.277,-0.011 -1.32,0.031 -2.485,1.261 -2.414,2.5 0.035,0.617 0.574,1.347 0.949,2.058 0.379,0.707 0.598,1.391 0.059,1.899 -1.079,1.023 -2.297,0.945 -2.297,0.945 z m 7.84,-0.246 -0.004,3.203 c 2.605,0.004 5.281,0.055 8.023,0.047 l -0.008,-3.199 c 0,0 -1.211,0.133 -2.414,-0.809 -1.203,-0.937 0.817,-2.75 0.821,-3.996 0.007,-1.246 -1.118,-2.406 -2.364,-2.418 -1.246,-0.012 -2.422,1.145 -2.429,2.379 -0.008,1.238 1.914,3.047 0.769,4.008 C 130.77,89.176 129.52,89 129.52,89 z m 8.011,0.051 0.008,3.199 c 1.867,-0.008 3.766,-0.043 5.691,-0.137 0.918,-0.043 1.836,-0.105 2.758,-0.187 l -0.289,-3.192 c 0,0 -1.238,0.243 -2.511,-0.625 -0.067,-0.043 -0.122,-0.089 -0.168,-0.136 -0.383,-0.387 -0.297,-0.926 -0.079,-1.508 l 0,0 c 0.301,-0.809 0.84,-1.711 0.797,-2.399 -0.05,-0.722 -0.461,-1.386 -1.015,-1.808 -0.403,-0.309 -0.887,-0.488 -1.383,-0.473 -1.18,0.043 -2.27,1.219 -2.254,2.453 0.012,0.617 0.496,1.367 0.852,2.086 0.355,0.719 0.574,1.403 0.011,1.899 -1.133,0.992 -2.418,0.828 -2.418,0.828 z m 8.168,-0.317 0.289,3.192 c 2.883,-0.258 5.785,-0.719 8.66,-1.434 l -0.761,-3.101 c 0,0 -1.203,0.429 -2.59,-0.25 -0.695,-0.34 -0.613,-1.059 -0.41,-1.84 0.203,-0.778 0.519,-1.625 0.39,-2.235 -0.129,-0.613 -0.515,-1.144 -0.996,-1.503 -0.48,-0.36 -1.062,-0.547 -1.621,-0.461 -0.555,0.089 -1.051,0.453 -1.398,0.949 -0.352,0.492 -0.551,1.121 -0.477,1.738 0.07,0.613 0.625,1.313 1.055,1.984 0.433,0.676 0.738,1.332 0.223,1.891 -1.028,1.117 -2.364,1.07 -2.364,1.07 z m 8.188,-1.343 0.761,3.101 c 2.602,-0.644 5.184,-1.496 7.704,-2.597 0.261,-0.118 0.523,-0.239 0.785,-0.364 l -1.352,-2.894 c 0,0 -0.277,0.168 -0.75,0.285 -0.465,0.109 -1.121,0.168 -1.859,-0.035 -0.75,-0.207 -0.789,-0.93 -0.735,-1.731 0.055,-0.804 0.2,-1.691 -0.039,-2.265 -0.238,-0.578 -0.711,-1.028 -1.238,-1.293 -0.527,-0.27 -1.109,-0.356 -1.621,-0.176 -0.516,0.176 -0.922,0.609 -1.176,1.148 -0.25,0.543 -0.344,1.188 -0.176,1.782 0.168,0.593 0.821,1.195 1.352,1.789 0.531,0.593 0.945,1.187 0.527,1.82 -0.836,1.266 -2.183,1.43 -2.183,1.43 z m 7.898,-2.754 1.352,2.894 c 2.726,-1.289 5.289,-2.816 7.691,-4.523 l -1.859,-2.598 c 0,0 -0.957,0.844 -2.496,0.727 -0.77,-0.059 -0.957,-0.758 -1.055,-1.555 -0.102,-0.797 -0.125,-1.699 -0.469,-2.215 -0.344,-0.519 -0.898,-0.867 -1.472,-1.023 -0.575,-0.156 -1.172,-0.121 -1.645,0.156 -0.473,0.277 -0.785,0.785 -0.922,1.363 -0.137,0.578 -0.097,1.227 0.184,1.778 0.281,0.547 1.039,1.007 1.676,1.48 0.64,0.477 1.164,0.977 0.878,1.68 -0.566,1.406 -1.863,1.836 -1.863,1.836 z m 7.184,-4.227 1.859,2.598 c 2.402,-1.707 4.649,-3.598 6.735,-5.613 l -2.231,-2.305 c 0,0 -0.812,0.969 -2.355,1.09 -0.774,0.062 -1.071,-0.598 -1.293,-1.371 -0.227,-0.778 -0.387,-1.672 -0.809,-2.133 -0.844,-0.918 -2.398,-1.059 -3.258,-0.328 -0.433,0.367 -0.668,0.933 -0.711,1.535 -0.039,0.601 0.11,1.238 0.489,1.73 0.375,0.489 1.203,0.809 1.918,1.164 0.71,0.36 1.312,0.766 1.156,1.508 -0.313,1.481 -1.5,2.125 -1.5,2.125 z" /></g><text style="font-size:12.16165066px" y="-674.35315" x="134.34659" id="text426" transform="matrix(0.81460624,-0.59292263,-0.62524695,-0.77249217,0,0)"><tspan id="tspan428" sodipodi:role="line" y="-674.35315" x="134.34659 137.31085 138.3945 140.82423 143.7885 145.13457 146.47577 149.1825 150.26129 152.69101 155.39774 156.73894 158.362 159.44565 162.14751 164.85422 166.19543 168.90215 170.52519 172.14825 174.85011 178.36349" style="font-size:4.85945129px;font-variant:normal;font-weight:normal;writing-mode:lr-tb;fill:#000000;fill-opacity:1;fill-rule:nonzero;stroke:none;font-family:Arial;-inkscape-font-specification:Arial">TikZ this$\rightarrow$</tspan></text>
</g><g id="g432" transform="matrix(1.04073,0,0,1.04073,64.512,333.459)" /><g id="g436" transform="matrix(1.04073,0,0,1.04073,64.512,333.459)" />


















<flowRoot xml:space="preserve" id="flowRoot3563" style="font-size:12px;font-style:normal;font-variant:normal;font-weight:normal;font-stretch:normal;text-align:center;line-height:125%;letter-spacing:0;word-spacing:0;writing-mode:lr-tb;text-anchor:middle;fill:#000000;fill-opacity:1;stroke:none;font-family:Bitstream Vera Serif;-inkscape-font-specification:Bitstream Vera Serif" transform="matrix(0.8,0,0,-0.8,64.512,496.36951)"><flowRegion id="flowRegion3565"><rect id="rect3567" width="11.375032" height="17.333384" x="-4.8750138" y="-17.362497" /></flowRegion><flowPara id="flowPara3569"></flowPara></flowRoot></g></svg>