<?xml version="1.0" encoding="UTF-8" standalone="no"?>
<!-- Created with Inkscape (http://www.inkscape.org/) -->

<svg
   xmlns:dc="http://purl.org/dc/elements/1.1/"
   xmlns:cc="http://creativecommons.org/ns#"
   xmlns:rdf="http://www.w3.org/1999/02/22-rdf-syntax-ns#"
   xmlns:svg="http://www.w3.org/2000/svg"
   xmlns="http://www.w3.org/2000/svg"
   xmlns:xlink="http://www.w3.org/1999/xlink"
   xmlns:sodipodi="http://sodipodi.sourceforge.net/DTD/sodipodi-0.dtd"
   xmlns:inkscape="http://www.inkscape.org/namespaces/inkscape"
   id="svg2"
   version="1.1"
   inkscape:version="0.47 r22583"
   width="4159"
   height="544"
   sodipodi:docname="template-header-cave3.svg">
  <metadata
     id="metadata8">
    <rdf:RDF>
      <cc:Work
         rdf:about="">
        <dc:format>image/svg+xml</dc:format>
        <dc:type
           rdf:resource="http://purl.org/dc/dcmitype/StillImage" />
        <dc:title />
      </cc:Work>
    </rdf:RDF>
  </metadata>
  <defs
     id="defs6">
    <linearGradient
       id="linearGradient3626">
      <stop
         style="stop-color:#191b2f;stop-opacity:1;"
         offset="0"
         id="stop3628" />
      <stop
         id="stop3739"
         offset="0.28943434"
         style="stop-color:#0006ff;stop-opacity:0.95999998;" />
      <stop
         style="stop-color:#0006ff;stop-opacity:1;"
         offset="1"
         id="stop3630" />
    </linearGradient>
    <linearGradient
       id="linearGradient3618">
      <stop
         style="stop-color:#0004a0;stop-opacity:0.98823529;"
         offset="0"
         id="stop3620" />
      <stop
         id="stop3622"
         offset="0.62643343"
         style="stop-color:#f6f6ff;stop-opacity:1;" />
      <stop
         style="stop-color:#0004a0;stop-opacity:0.98666668;"
         offset="1"
         id="stop3624" />
    </linearGradient>
    <linearGradient
       id="linearGradient3600">
      <stop
         id="stop3602"
         offset="0"
         style="stop-color:#0004a0;stop-opacity:0.98823529;" />
      <stop
         style="stop-color:#060686;stop-opacity:0.86666667;"
         offset="1"
         id="stop3616" />
      <stop
         id="stop3604"
         offset="1"
         style="stop-color:#0004a0;stop-opacity:0.98666668;" />
    </linearGradient>
    <inkscape:perspective
       sodipodi:type="inkscape:persp3d"
       inkscape:vp_x="0 : 0.5 : 1"
       inkscape:vp_y="0 : 1000 : 0"
       inkscape:vp_z="1 : 0.5 : 1"
       inkscape:persp3d-origin="0.5 : 0.33333333 : 1"
       id="perspective10" />
    <linearGradient
       inkscape:collect="always"
       xlink:href="#linearGradient3626"
       id="linearGradient3632"
       x1="2147.439"
       y1="413.20819"
       x2="2151.5674"
       y2="-125.66698"
       gradientUnits="userSpaceOnUse" />
    <clipPath
       id="clipPath4163"
       clipPathUnits="userSpaceOnUse">
      <path
         id="path4165"
         d="M 0,0 595,0 595,842 0,842 0,0 z" />
    </clipPath>
    <inkscape:perspective
       id="perspective4153"
       inkscape:persp3d-origin="0.5 : 0.33333333 : 1"
       inkscape:vp_z="1 : 0.5 : 1"
       inkscape:vp_y="0 : 1000 : 0"
       inkscape:vp_x="0 : 0.5 : 1"
       sodipodi:type="inkscape:persp3d" />
  </defs>
  <sodipodi:namedview
     pagecolor="#ffffff"
     bordercolor="#666666"
     borderopacity="1"
     objecttolerance="10"
     gridtolerance="10"
     guidetolerance="10"
     inkscape:pageopacity="0"
     inkscape:pageshadow="2"
     inkscape:window-width="1440"
     inkscape:window-height="852"
     id="namedview4"
     showgrid="false"
     inkscape:zoom="0.32919231"
     inkscape:cx="2086.5696"
     inkscape:cy="546.10318"
     inkscape:window-x="-4"
     inkscape:window-y="25"
     inkscape:window-maximized="1"
     inkscape:current-layer="svg2" />
  <rect
     ry="89.646667"
     rx="85.41143"
     y="-109.27863"
     x="65.69381"
     height="537.87518"
     width="4053.1226"
     id="rect3888"
     style="opacity:0.75000000000000000;fill:#000000;fill-opacity:0.34513274;fill-rule:evenodd;stroke:none;stroke-width:1;stroke-linecap:round;stroke-linejoin:round;stroke-miterlimit:4;stroke-opacity:1;stroke-dasharray:none;stroke-dashoffset:0" />
  <rect
     style="opacity:0.75000000000000000;fill:url(#linearGradient3632);fill-opacity:1;fill-rule:evenodd;stroke:#080891;stroke-width:1;stroke-linecap:round;stroke-linejoin:round;stroke-miterlimit:4;stroke-opacity:1;stroke-dasharray:none;stroke-dashoffset:0"
     id="rect3606"
     width="4053.1226"
     height="537.87518"
     x="54.822842"
     y="-125.16698"
     rx="85.41143"
     ry="89.646667" />
  <text
     xml:space="preserve"
     style="font-size:72px;font-style:normal;font-weight:normal;fill:#000000;fill-opacity:1;stroke:none;font-family:Bitstream Vera Sans"
     x="2723.459"
     y="-432.80292"
     id="text3921"><tspan
       sodipodi:role="line"
       id="tspan3923"
       x="2723.459"
       y="-432.80292"> </tspan></text>
  <text
     xml:space="preserve"
     style="font-size:72px;font-style:normal;font-weight:normal;fill:#000000;fill-opacity:1;stroke:none;font-family:Bitstream Vera Sans"
     x="2396.4785"
     y="-85.127312"
     id="text3931"><tspan
       sodipodi:role="line"
       id="tspan3933"
       x="2396.4785"
       y="-85.127312"> </tspan></text>
  <g
     id="g4834"
     transform="matrix(1.0516553,0,0,1.0516553,-671.15786,695.88348)">
    <path
       id="path4580"
       d="m 925.12199,-608.22734 -1.8362,-1.58565 0,-18.97359 0,-18.97358 1.20271,-0.27762 c 0.6615,-0.15269 1.30121,-0.27762 1.42158,-0.27762 0.12443,0 0.21884,1.58428 0.21884,3.67238 0,2.01981 0.0907,3.67238 0.2016,3.67238 0.11092,0 0.88386,-0.5157 1.71772,-1.14601 1.4445,-1.09187 2.39996,-1.69712 2.67912,-1.69712 0.15689,0 0.85091,1.3154 0.85091,1.61276 0,0.1181 -0.99941,0.97585 -2.22089,1.90609 -1.2215,0.93025 -2.36656,1.86687 -2.54457,2.08137 -0.28669,0.34543 -0.0553,0.6399 2.02462,2.57634 l 2.3483,2.18633 -0.64633,1.10287 c -0.41102,0.70138 -0.74929,1.04101 -0.92914,0.93294 -0.15555,-0.0935 -0.91719,-0.62914 -1.69255,-1.19037 -0.77535,-0.56124 -1.49502,-1.02044 -1.59926,-1.02044 -0.10419,0 -0.18953,1.16272 -0.18953,2.58382 l 0,2.58382 5.5071,9.4995 5.50708,9.4995 1.91794,0 c 1.05486,0 4.17541,0.0703 6.93454,0.15623 l 5.01659,0.15624 0.68464,1.11266 0.68462,1.11266 -2.2868,0.15145 c -1.25775,0.0833 -4.52578,0.1479 -7.26229,0.14357 l -4.97548,-0.008 -2.48776,-2.0042 c -1.36825,-1.1023 -2.54936,-2.00446 -2.62471,-2.00479 -0.0754,-3.2e-4 -1.34641,0.90565 -2.82462,2.01329 -1.47821,1.10764 -2.7493,2.00814 -2.82463,2.0011 -0.0754,-0.007 -0.96325,-0.72634 -1.97315,-1.59844 l 0,0 z"
       style="fill:#fffcfc;fill-opacity:1;fill-rule:evenodd;stroke:none" />
    <path
       id="path4582"
       d="m 917.3626,-639.09871 c -0.84702,-0.6593 -1.63426,-1.28982 -1.74942,-1.40117 -0.18571,-0.17954 1.36774,-2.60311 1.66851,-2.60311 0.0636,0 0.95389,0.60012 1.97837,1.3336 l 1.86268,1.33361 -0.96083,1.2726 c -0.52844,0.69993 -1.02798,1.27049 -1.11005,1.2679 -0.0821,-0.003 -0.84225,-0.54413 -1.68926,-1.20343 z"
       style="fill:#fffcfc;fill-opacity:1;fill-rule:evenodd;stroke:none" />
    <path
       id="path4592"
       d="m 964.57416,-536.49038 c -1.57076,-0.90083 -1.86043,-1.35789 -2.33081,-3.67763 -0.21025,-1.0369 -0.5266,-2.11267 -0.70298,-2.39061 -1.17314,-1.84862 -27.22311,-22.59512 -28.37114,-22.59512 -0.13372,0 -0.5926,0.26654 -1.01971,0.59232 -0.42712,0.32577 -0.97025,0.59214 -1.207,0.59191 -0.39595,-4.7e-4 -4.90578,-3.37231 -7.01413,-5.24439 l -0.89744,-0.79686 0.0682,-7.66073 0.0682,-7.66074 2.48774,2.29303 c 1.36826,1.26117 2.7414,2.46417 3.05144,2.67332 0.52861,0.35662 0.58845,0.34969 0.96184,-0.11137 0.4469,-0.5519 3.39822,-8.2925 3.28542,-8.61685 -0.15128,-0.43499 -9.43719,-9.19949 -9.90362,-9.34753 -0.66063,-0.20967 -1.58196,0.35635 -7.71542,4.74002 -2.8246,2.01878 -5.20739,3.67052 -5.29511,3.67052 -0.0877,0 -0.29754,-1.4643 -0.46629,-3.25398 -0.16876,-1.78967 -0.3604,-3.34062 -0.42586,-3.44655 -0.17974,-0.29082 -1.23298,0.39923 -6.94939,4.55307 -2.88073,2.09327 -5.26741,3.80595 -5.30376,3.80595 -0.0363,0 -0.0167,-0.85294 0.0436,-1.89543 0.0923,-1.59366 0.0518,-1.89542 -0.25393,-1.89542 -0.48151,0 -3.56312,2.09409 -5.56291,3.78023 -1.71897,1.44937 -1.66125,1.28782 -1.34197,3.7555 l 0.16265,1.25715 -1.16987,1.12761 c -1.41,1.35905 -8.93158,7.03458 -10.86811,8.20069 -0.78715,0.47401 -1.69856,0.83304 -2.11463,0.83304 -0.70883,0 -1.78438,-0.5527 -1.78438,-0.91694 0,-0.0986 0.84773,-0.91421 1.88383,-1.81243 2.17466,-1.88524 2.22769,-1.55762 -0.63996,-3.95357 -1.07506,-0.89821 -1.95466,-1.77872 -1.95466,-1.95668 0,-0.5545 3.48972,-3.41549 21.3956,-17.5409 3.46891,-2.73652 6.31112,-5.05544 6.31603,-5.15318 0.006,-0.0978 -0.30547,-0.17769 -0.68972,-0.17769 -0.38426,0 -1.9541,-0.16458 -3.48852,-0.36573 -3.02437,-0.39645 -3.73578,-0.70095 -4.70725,-2.01477 l -0.60487,-0.81803 3.15038,-0.17394 c 1.73272,-0.0957 4.84834,-0.27682 6.92362,-0.40254 l 3.77323,-0.22859 2.23031,-1.07827 c 1.22667,-0.59304 2.31939,-1.07825 2.42827,-1.07825 0.10889,0 1.45875,0.98902 2.99971,2.19781 3.66968,2.87866 3.87432,3.0146 4.53831,3.0146 0.31077,0 1.55782,-0.69224 2.77172,-1.53857 l 2.20676,-1.53857 0.15158,1.59779 c 0.22505,2.37215 0.32968,2.76818 0.95535,3.61624 0.55716,0.75519 3.15047,3.07552 3.43733,3.07552 0.0793,0 1.25672,-0.74615 2.61646,-1.65812 1.35975,-0.91196 2.6556,-1.65828 2.87968,-1.65849 1.33741,-0.001 30.85348,25.47365 31.35861,27.06516 0.13022,0.41031 -0.016,0.67557 -0.69646,1.26381 -0.4737,0.40949 -0.86128,0.81078 -0.86128,0.89178 0,0.081 0.71967,0.83827 1.59927,1.68284 1.79527,1.72379 1.77757,1.413 0.20819,3.65504 l -0.68029,0.97186 1.49312,2.19573 c 0.82121,1.20765 2.63914,3.85349 4.03984,5.87962 1.40069,2.02614 2.68388,3.9849 2.85151,4.3528 0.28151,0.61789 0.25583,0.70795 -0.33665,1.18038 -0.35279,0.2813 -1.61823,1.11963 -2.81212,1.86294 l -2.1707,1.35147 0.0526,6.14395 c 0.0563,6.57532 -0.11125,9.50191 -0.54373,9.49829 -0.14604,-8.7e-4 -0.82363,-0.32228 -1.50571,-0.71346 l 0,0 z m -7.46374,-16.49894 c 0.98208,-0.72784 2.14003,-2.3514 2.47293,-3.46729 0.43886,-1.47109 0.35504,-6.28773 -0.15127,-8.69077 -0.97735,-4.63879 -3.08282,-9.5034 -6.02026,-13.90949 -2.56645,-3.84963 -2.68843,-4.1164 -2.50716,-5.48281 l 0.1507,-1.13611 -2.14326,-2.01757 c -2.49644,-2.35005 -3.91899,-3.39257 -4.38516,-3.21368 -0.18263,0.0701 -0.40386,0.60623 -0.4916,1.19144 -0.0933,0.6225 -0.31037,1.12191 -0.52297,1.20348 -0.19987,0.0767 -1.44751,0.14179 -2.77254,0.14465 -1.86307,0.005 -2.63668,0.10856 -3.41309,0.46095 -4.12459,1.87229 -3.80012,10.82014 0.71849,19.81382 3.5584,7.08249 9.23914,13.04611 14.52642,15.24979 1.48887,0.62056 3.59559,0.55259 4.53877,-0.14641 l 0,0 z"
       style="fill:#fffcfc;fill-opacity:1;fill-rule:evenodd;stroke:none" />
    <path
       id="path4486"
       d="m 922.90609,-495.50016 0,-45.61977 1.59926,1.03404 c 33.45995,21.63458 44.60104,29.29822 44.59441,30.67526 -0.004,0.82808 0.66914,11.52091 1.4958,23.76184 0.82666,12.24093 1.34245,22.41679 1.14622,22.61303 -0.19624,0.19623 -10.57911,3.01892 -23.07305,6.27264 -12.49394,3.25373 -23.40169,6.13341 -24.23945,6.3993 l -1.52319,0.48345 0,-45.61979 z"
       style="opacity:0.75;fill:#fffcfc;fill-opacity:1;fill-rule:evenodd;stroke:none" />
    <path
       id="path4488"
       d="m 945.65117,-531.9926 -22.38969,-15.06607 -0.20252,-7.6868 -0.2025,-7.6868 3.83305,3.27469 c 2.10819,1.80108 4.08317,3.27469 4.38886,3.27469 0.30569,0 0.95626,-0.54767 1.44572,-1.21704 0.66631,-0.91123 1.1325,-1.02267 1.85531,-0.4435 0.53097,0.42544 6.40289,5.00168 13.04872,10.16941 14.63532,11.38029 13.43716,10.23822 12.5264,11.93999 -0.66822,1.24856 -0.27502,1.70646 3.42803,3.99211 l 4.18283,2.58178 0.4936,5.26753 c 0.27149,2.89715 0.37846,5.58221 0.23773,5.96682 -0.14074,0.38459 -10.33123,-6.08047 -22.64554,-14.36681 z"
       style="opacity:0.75;fill:#fffcfc;fill-opacity:1;fill-rule:evenodd;stroke:none" />
    <path
       id="path4490"
       d="m 963.95382,-536.5199 c -1.52671,-0.94657 -1.95734,-1.75939 -1.96694,-3.7127 -0.0118,-2.39638 -0.59362,-2.96081 -13.93463,-13.51795 -7.65726,-6.05942 -14.22897,-11.13051 -14.60379,-11.26909 -0.37483,-0.13856 -1.06106,0.26714 -1.52496,0.90158 -0.74637,1.02071 -1.3128,0.76333 -4.92045,-2.2358 l -4.07698,-3.38932 -0.0101,-8.14429 -0.0101,-8.14431 3.18362,3.12449 c 1.751,1.71847 3.293,2.98451 3.42666,2.81342 0.13366,-0.17108 0.93244,-2.22976 1.77505,-4.57485 l 1.53205,-4.26379 -4.76193,-4.79869 c -2.61906,-2.63929 -5.00712,-4.7987 -5.30681,-4.7987 -0.29969,0 -3.34687,2.05758 -6.77151,4.5724 l -6.22662,4.57239 -0.3554,-3.81936 -0.35538,-3.81937 -4.26471,3.21581 c -2.34557,1.76869 -5.19599,3.88731 -6.33423,4.70805 l -2.06955,1.49224 0.45252,-2.26256 c 0.24888,-1.2444 0.19314,-2.26255 -0.12386,-2.26255 -0.56452,0 -7.20671,4.95829 -7.20671,5.37969 0,0.11772 0.2934,0.98574 0.652,1.92895 0.60423,1.58923 0.11081,2.11747 -6.73307,7.20798 -6.78341,5.04555 -7.50117,5.41175 -8.81012,4.49493 -1.39399,-0.97639 -1.37891,-1.03223 0.69141,-2.56289 1.16405,-0.86062 2.11249,-1.79508 2.10766,-2.07657 -0.006,-0.2815 -1.1481,-1.25002 -2.5406,-2.15225 -1.95994,-1.26993 -2.35502,-1.85344 -1.74917,-2.58347 0.43045,-0.51865 6.87984,-5.69772 14.33196,-11.50905 l 13.54933,-10.56603 -3.91308,-0.21138 c -3.24205,-0.17514 -4.10893,-0.51032 -5.0553,-1.95466 l -1.14222,-1.74327 7.21801,0 c 6.06132,0 7.59993,-0.23604 9.60124,-1.47292 l 2.38322,-1.4729 3.43269,2.89448 c 1.88798,1.59196 3.67333,2.89447 3.96745,2.89447 0.29412,0 1.63291,-0.83759 2.97509,-1.86131 l 2.44031,-1.86132 0.0394,2.7498 c 0.0311,2.17546 0.48047,3.09841 2.1514,4.4189 l 2.11207,1.66909 2.42127,-1.84679 c 1.3317,-1.01574 2.72373,-1.84679 3.09342,-1.84679 0.36968,0 7.89232,6.20822 16.71698,13.79604 15.59777,13.41165 16.00122,13.82538 14.47943,14.848 l -1.56542,1.05193 1.99803,1.58574 c 1.99408,1.5826 1.99527,1.58875 0.60446,3.09929 l -1.39358,1.51356 4.54872,6.39146 c 2.50181,3.51532 4.53936,6.55393 4.52791,6.75245 -0.0114,0.19854 -1.33447,1.1606 -2.94004,2.13793 l -2.9192,1.77696 0.13543,7.99631 c 0.0746,4.39797 -0.12178,7.98781 -0.43618,7.9774 -0.3144,-0.0101 -1.45123,-0.56427 -2.52628,-1.23081 l 0,0 z m -6.20649,-17.09813 c 4.41851,-3.57788 1.57056,-17.79448 -5.30529,-26.48348 -1.8354,-2.31939 -2.2682,-3.36663 -1.77347,-4.29107 0.52281,-0.97687 -0.0591,-1.82028 -2.89225,-4.19238 -3.53517,-2.9598 -3.54673,-2.96344 -3.54673,-1.11793 0,1.75142 -0.14863,1.82778 -2.74842,1.41205 -5.69553,-0.91076 -8.08951,3.2007 -6.53411,11.22178 1.76526,9.10326 9.13927,19.91833 15.84355,23.23689 3.71139,1.83709 4.90701,1.87389 6.95672,0.21414 l 0,0 z"
       style="opacity:0.75;fill:#fffcfc;fill-opacity:1;fill-rule:evenodd;stroke:none" />
    <path
       id="path4492"
       d="m 880.71338,-532.87653 -1.00592,-0.89267 2.71671,-1.80937 2.71674,-1.80936 0.15209,-1.2665 c 0.0837,-0.69658 0.15301,-2.05089 0.15414,-3.00957 0.002,-1.44361 -0.0583,-1.71993 -0.34926,-1.60826 -0.19323,0.0741 -1.52882,0.88518 -2.968,1.8023 -1.43917,0.91713 -2.66875,1.6675 -2.73238,1.6675 -0.21632,0 -2.71466,-1.72484 -2.70825,-1.86974 0.003,-0.0793 7.30587,-4.88839 16.22748,-10.6869 l 16.22108,-10.54274 0.0614,-12.24785 0.0613,-12.24785 2.91353,2.77019 2.91354,2.7702 -0.0704,14.68423 -0.0704,14.68425 -2.96159,1.83523 c -4.71357,2.9209 -4.20501,2.75684 -5.63864,1.819 -0.67306,-0.44028 -1.22568,-0.86838 -1.22801,-0.95131 -0.002,-0.083 1.33698,-1.02933 2.97628,-2.10311 1.63931,-1.07378 3.02867,-2.07774 3.08749,-2.23103 0.0588,-0.15328 0.0769,-1.64493 0.0403,-3.31476 l -0.0667,-3.03606 -3.25776,2.15676 -3.25775,2.15676 0,2.45707 0,2.45707 -8.17143,5.18721 -8.17141,5.1872 -0.0115,2.36928 -0.0115,2.36928 -3.05373,2.07311 c -1.67957,1.14022 -3.15448,2.07312 -3.27759,2.07312 -0.12311,0 -0.67651,-0.40171 -1.22977,-0.89268 l 0,0 z"
       style="opacity:0.75;fill:#fffcfc;fill-opacity:1;fill-rule:evenodd;stroke:none" />
    <path
       id="path4494"
       d="m 883.28877,-557.2174 c -1.92635,-1.04685 -1.85343,-5.06533 0.16981,-9.35791 3.92311,-8.32338 12.94641,-15.82102 17.00134,-14.12676 1.06695,0.4458 1.80279,1.86492 1.79668,3.46501 l -0.004,1.06617 -0.32716,-0.75212 c -0.51154,-1.17605 -1.33208,-1.58745 -2.85308,-1.43046 -4.72759,0.48793 -12.04052,8.34987 -13.85401,14.89406 -0.9835,3.5491 -0.29992,5.29058 2.21632,5.64628 l 0.97621,0.13799 -1.16762,0.40693 c -1.40486,0.48963 -3.1067,0.5115 -3.95441,0.0508 l 0,0 z"
       style="opacity:0.75;fill:#fffcfc;fill-opacity:1;fill-rule:evenodd;stroke:none" />
    <path
       id="path4496"
       d="m 871.98043,-554.25353 -4.11012,-3.9549 4.21985,-3.81702 c 2.32093,-2.09937 4.2238,-3.79533 4.2286,-3.76882 0.004,0.0265 -0.0445,3.52389 -0.10968,7.77194 l -0.11848,7.72371 -4.11012,-3.95491 z"
       style="opacity:0.75;fill:#fffcfc;fill-opacity:1;fill-rule:evenodd;stroke:none" />
    <path
       id="path4498"
       d="m 925.1346,-608.0422 -1.89541,-1.65156 -0.11847,-10.36679 c -0.0652,-5.70174 -0.0858,-14.28252 -0.0458,-19.0684 l 0.0727,-8.70159 0.87498,-0.21867 c 0.48125,-0.12027 1.16553,-0.28404 1.52066,-0.36393 l 0.64567,-0.14526 0.0652,3.77887 0.0652,3.77888 2.01389,-1.51903 c 1.10763,-0.83546 2.14499,-1.52172 2.30523,-1.52502 0.26241,-0.005 1.38812,1.85472 1.20599,1.99276 -3.31377,2.51149 -5.16972,4.00146 -5.16972,4.15029 0,0.15664 1.12996,1.21261 4.46039,4.16833 0.25677,0.22788 0.1761,0.50313 -0.44168,1.50716 -0.67913,1.10373 -0.80006,1.1972 -1.19176,0.92127 -0.23977,-0.16891 -1.08054,-0.76703 -1.86838,-1.32917 l -1.43242,-1.02208 0.0184,2.56211 0.0184,2.5621 5.49912,9.47711 5.49911,9.47711 6.9229,0.11847 6.92291,0.11846 0.79806,1.32517 0.79806,1.32516 -7.3429,0.14486 -7.34291,0.14486 -2.40083,-1.92472 c -1.32045,-1.0586 -2.52239,-2.01665 -2.67099,-2.12901 -0.17493,-0.13228 -1.21891,0.54897 -2.96159,1.93258 -1.4803,1.17529 -2.74474,2.1356 -2.8099,2.13406 -0.0652,-10e-4 -0.9714,-0.74602 -2.01388,-1.65438 z"
       style="opacity:0.75;fill:#fffcfc;fill-opacity:1;fill-rule:evenodd;stroke:none" />
    <path
       id="path4500"
       d="m 948.48341,-597.47134 -6.26717,-5.47238 2.83171,-0.18277 c 1.55745,-0.10049 3.40304,-0.15383 4.1013,-0.11846 l 1.26958,0.0643 2.24138,5.53177 c 1.23275,3.04249 2.2074,5.55837 2.16588,5.59085 -0.0415,0.0325 -2.89574,-2.40351 -6.34268,-5.41332 z"
       style="opacity:0.75;fill:#fffcfc;fill-opacity:1;fill-rule:evenodd;stroke:none" />
    <path
       id="path4502"
       d="m 952.26283,-558.23318 -1.06617,-0.38679 0.94771,-0.13591 c 1.18842,-0.17041 1.45719,-0.33797 1.89264,-1.18006 2.96083,-5.7256 -6.79876,-22.0689 -12.53596,-20.99259 -0.93314,0.17506 -1.4278,0.67406 -1.91346,1.93022 l -0.36032,0.93201 0.0867,-1.68414 c 0.19312,-3.75134 2.17995,-5.09052 5.36719,-3.61762 5.30598,2.452 11.28636,11.7181 12.30922,19.07207 0.29591,2.12755 0.14534,3.60897 -0.49629,4.88287 -0.77595,1.54056 -2.16753,1.92863 -4.23125,1.17994 z"
       style="opacity:0.75;fill:#fffcfc;fill-opacity:1;fill-rule:evenodd;stroke:none" />
    <path
       id="path4504"
       d="m 948.88238,-565.92413 -2.78815,-1.95428 0.13068,-2.72467 c 0.0719,-1.49856 0.19162,-3.3441 0.26607,-4.10118 0.13114,-1.33312 0.14956,-1.36371 0.58435,-0.97022 0.40078,0.3627 0.44895,0.76986 0.44895,3.795 l 0,3.3887 2.12199,1.49083 c 1.91951,1.34858 2.12296,1.56429 2.13234,2.26083 0.006,0.42351 -0.0163,0.76985 -0.0489,0.76965 -0.0326,-2.1e-4 -1.3139,-0.8798 -2.84738,-1.95466 z"
       style="opacity:0.75;fill:#fffcfc;fill-opacity:1;fill-rule:evenodd;stroke:none" />
    <path
       id="path4506"
       d="m 901.91568,-454.9696 c -2.34559,-0.62458 -4.69876,-1.25508 -5.22928,-1.40114 l -0.9646,-0.26553 0.0709,-1.95692 c 0.039,-1.07631 0.19236,-7.12788 0.34078,-13.44792 0.30228,-12.8713 0.27095,-12.65183 2.0266,-14.19721 3.08932,-2.71931 6.66562,-2.73724 8.06916,-0.0405 l 0.54345,1.0442 0,15.71844 c 0,12.42649 -0.062,15.71463 -0.29615,15.70026 -0.16289,-0.0101 -2.21529,-0.52918 -4.56087,-1.15376 l 0,0 z"
       style="opacity:0.75;fill:#fffcfc;fill-opacity:1;fill-rule:evenodd;stroke:none" />
    <path
       id="path4508"
       d="m 882.94064,-459.94771 -4.04858,-1.05609 0.0902,-2.26089 c 0.725,-18.16718 0.68399,-17.86714 2.64749,-19.37237 2.17131,-1.66451 4.37736,-1.56633 5.30642,0.2362 0.44645,0.86619 0.45453,1.24997 0.257,12.20178 l -0.20397,11.30745 -4.04858,-1.05608 z"
       style="opacity:0.75;fill:#fffcfc;fill-opacity:1;fill-rule:evenodd;stroke:none" />
    <path
       id="path4510"
       d="m 878.38962,-492.1656 0.0702,-1.70321 16.34802,-6.3808 c 8.99141,-3.50944 16.42799,-6.38129 16.52573,-6.38188 0.0977,-6e-4 0.17576,1.03844 0.17339,2.30896 l -0.004,2.31004 -16.28448,5.66259 c -8.95645,3.11442 -16.42268,5.7132 -16.59161,5.77506 -0.23742,0.0869 -0.2912,-0.27412 -0.23693,-1.59076 l 0,0 z"
       style="opacity:0.75;fill:#fffcfc;fill-opacity:1;fill-rule:evenodd;stroke:none" />
    <path
       id="path4512"
       d="m 893.26782,-511.60954 0,-6.86547 2.60968,-1.3088 2.60969,-1.30882 -0.0627,7.13334 -0.0628,7.13334 -1.42156,0.58785 c -0.78187,0.32331 -1.928,0.79174 -2.54697,1.04094 l -1.12542,0.45309 0,-6.86547 z"
       style="opacity:0.75;fill:#fffcfc;fill-opacity:1;fill-rule:evenodd;stroke:none" />
    <path
       id="path4514"
       d="m 902.98185,-516.10169 0,-7.34313 0.96914,-0.49441 c 0.53303,-0.27193 1.75913,-0.85443 2.72468,-1.29445 l 1.75553,-0.80001 -0.003,7.50898 -0.003,7.50897 -1.83311,0.76364 c -1.0082,0.42001 -2.23291,0.92788 -2.72157,1.12859 l -0.88849,0.36494 0,-7.34312 z"
       style="opacity:0.75;fill:#fffcfc;fill-opacity:1;fill-rule:evenodd;stroke:none" />
    <path
       id="path4516"
       d="m 883.60927,-507.21672 0.063,-6.50338 2.42852,-1.18749 2.4285,-1.18747 0,6.71225 0,6.71224 -1.24386,0.4814 c -0.68413,0.26478 -1.8053,0.70516 -2.49149,0.97862 l -1.24761,0.49721 0.063,-6.50338 z"
       style="opacity:0.75;fill:#fffcfc;fill-opacity:1;fill-rule:evenodd;stroke:none" />
    <path
       id="path4518"
       d="m 874.36293,-516.11644 0.0691,-1.94078 22.03429,-12.89876 c 12.11886,-7.09434 23.02049,-13.47614 24.22586,-14.18181 l 2.19159,-1.28301 0,2.18961 0,2.18962 -22.90343,13.14364 c -12.59688,7.22899 -23.52962,13.49882 -24.29499,13.93295 l -1.39158,0.7893 0.0692,-1.94076 0,0 z"
       style="opacity:0.75;fill:#fffcfc;fill-opacity:1;fill-rule:evenodd;stroke:none" />
    <path
       id="path4560"
       d="m 923.04887,-495.36452 c 0,-24.96211 0.0445,-45.38566 0.099,-45.38566 0.16015,0 22.66118,14.68989 29.6987,19.3889 9.78559,6.53394 15.38145,10.62498 15.92667,11.64374 0.11703,0.21868 0.64468,7.31934 1.17254,15.77924 0.52788,8.45993 1.06603,17.03424 1.19591,19.05404 0.12988,2.01982 0.30605,5.4852 0.39147,7.70087 l 0.15532,4.02849 -3.88482,1.11812 c -2.13665,0.61497 -12.99291,3.5254 -24.12504,6.46763 -11.13213,2.94223 -20.32789,5.40368 -20.43503,5.46989 -0.10711,0.0662 -0.19478,-20.30315 -0.19478,-45.26526 z"
       style="fill:#fffcfc;fill-opacity:1;fill-rule:evenodd;stroke:none" />
    <path
       id="path4562"
       d="m 900.69578,-455.40723 -4.9389,-1.31492 0.13739,-2.26938 c 0.0756,-1.24815 0.19874,-5.57452 0.27373,-9.61413 0.17596,-9.47867 0.49185,-15.08161 0.90621,-16.07332 0.60251,-1.44199 3.40516,-3.23167 5.35412,-3.41893 1.547,-0.14866 2.72839,0.44677 3.59369,1.8112 l 0.67882,1.07041 0,13.77814 c 0,15.16957 -0.0889,17.42008 -0.68631,17.37471 -0.20893,-0.0159 -2.60236,-0.62058 -5.31875,-1.34378 l 0,0 z"
       style="fill:#fffcfc;fill-opacity:1;fill-rule:evenodd;stroke:none" />
    <path
       id="path4564"
       d="m 882.96508,-460.06603 c -2.04346,-0.53073 -3.77373,-1.0233 -3.84503,-1.09461 -0.17529,-0.1753 0.49334,-14.50018 0.80538,-17.25476 0.29206,-2.57819 0.59871,-3.27014 1.82227,-4.11212 2.28345,-1.57129 4.09073,-1.52495 4.98554,0.12783 0.37793,0.6981 0.40632,1.60932 0.33389,10.71396 -0.0436,5.47304 -0.14837,10.54355 -0.23293,11.26781 l -0.15375,1.31684 -3.71537,-0.96495 z"
       style="fill:#fffcfc;fill-opacity:1;fill-rule:evenodd;stroke:none" />
    <path
       id="path4566"
       d="m 878.50645,-492.2633 0,-1.50489 4.32393,-1.68041 c 25.90804,-10.06856 28.23084,-10.93924 28.4179,-10.65223 0.10665,0.16363 0.16659,1.13604 0.13326,2.16091 l -0.0607,1.86342 -16.22954,5.65141 c -8.92626,3.10828 -16.30953,5.65485 -16.40725,5.65904 -0.0977,0.004 -0.17769,-0.66957 -0.17769,-1.49725 z"
       style="fill:#fffcfc;fill-opacity:1;fill-rule:evenodd;stroke:none" />
    <path
       id="path4568"
       d="m 883.71885,-507.30533 0,-6.35902 0.53309,-0.25217 c 0.29319,-0.13869 1.36105,-0.63366 2.37302,-1.09992 l 1.83993,-0.84776 -0.063,6.55376 -0.0629,6.55377 -2.23378,0.90518 c -1.22858,0.49784 -2.2681,0.90518 -2.31004,0.90518 -0.0419,0 -0.0763,-2.86156 -0.0763,-6.35902 z"
       style="fill:#fffcfc;fill-opacity:1;fill-rule:evenodd;stroke:none" />
    <path
       id="path4570"
       d="m 893.4329,-511.67251 0,-6.69842 2.48773,-1.23724 2.48774,-1.23725 -0.0312,4.32252 c -0.0172,2.37739 -0.0971,5.52951 -0.1777,7.00473 l -0.14652,2.68219 -2.25081,0.92938 c -1.23795,0.51115 -2.27747,0.93009 -2.31005,0.93094 -0.0326,8.7e-4 -0.0592,-3.01271 -0.0592,-6.69685 z"
       style="fill:#fffcfc;fill-opacity:1;fill-rule:evenodd;stroke:none" />
    <path
       id="path4572"
       d="m 903.14694,-516.17619 0,-7.17434 1.83619,-0.91345 c 1.0099,-0.5024 2.18421,-1.06093 2.60958,-1.24119 l 0.7734,-0.32774 -0.0627,7.36912 -0.0626,7.36911 -2.48115,1.04641 c -1.36463,0.57553 -2.51078,1.04642 -2.54698,1.04642 -0.0362,0 -0.0658,-3.22846 -0.0658,-7.17434 z"
       style="fill:#fffcfc;fill-opacity:1;fill-rule:evenodd;stroke:none" />
    <path
       id="path4574"
       d="m 874.5274,-516.19604 0.0696,-1.80404 24.04816,-14.07947 24.04818,-14.07947 0.0694,1.91571 c 0.0486,1.34102 -0.0224,1.99922 -0.23692,2.19412 -0.16853,0.15313 -10.70162,6.23277 -23.40687,13.51032 -12.70525,7.27755 -23.45169,13.43777 -23.88097,13.68938 l -0.78051,0.4575 0.0696,-1.80405 z"
       style="fill:#fffcfc;fill-opacity:1;fill-rule:evenodd;stroke:none" />
    <path
       id="path4576"
       d="m 964.74815,-519.74291 c -5.39536,-3.3151 -11.59351,-7.38562 -26.83207,-17.62147 l -14.63029,-9.82727 0,-2.07185 c 0,-1.13952 -0.071,-4.51241 -0.15783,-7.49532 l -0.15784,-5.42346 2.23095,1.91269 c 2.60629,2.23448 5.63577,4.59296 5.89972,4.59296 0.10138,0 0.67603,-0.50587 1.27701,-1.12417 1.01324,-1.0424 1.13047,-1.10056 1.61203,-0.79983 0.78545,0.49053 21.57006,16.71366 23.96055,18.70209 1.14787,0.9548 2.14419,1.88495 2.21405,2.06701 0.0699,0.18206 -0.0603,0.82151 -0.28922,1.42099 l -0.41628,1.08996 0.74892,0.7489 c 0.41191,0.41192 2.21504,1.6684 4.00696,2.7922 l 3.25801,2.04326 0.2642,2.93704 c 0.47284,5.25663 0.61462,8.03109 0.41016,8.02629 -0.11024,-0.002 -1.63983,-0.88909 -3.39903,-1.97002 z"
       style="fill:#fffcfc;fill-opacity:1;fill-rule:evenodd;stroke:none" />
    <path
       id="path4578"
       d="m 964.64318,-536.32697 c -1.93323,-1.0753 -2.26585,-1.59766 -2.53197,-3.97627 -0.17252,-1.54206 -0.33934,-2.10308 -0.74724,-2.5131 -3.48266,-3.50075 -27.26031,-22.3374 -28.19666,-22.3374 -0.17368,0 -0.62219,0.31986 -0.99673,0.71079 -0.37454,0.39092 -0.85549,0.71077 -1.0688,0.71077 -0.4932,0 -1.84387,-0.96647 -5.29769,-3.79084 l -2.75246,-2.25081 -0.002,-7.93024 -0.002,-7.93024 1.4808,1.42942 c 2.69697,2.60327 4.46529,4.12469 4.79417,4.12469 0.32734,0 1.02916,-1.64296 2.74125,-6.4173 l 0.89938,-2.50798 -4.06928,-4.02502 c -4.47759,-4.42891 -5.70689,-5.53006 -6.17359,-5.53006 -0.42005,0 -3.25526,1.91713 -8.51024,5.7545 l -4.37399,3.19404 -0.29458,-3.46732 c -0.16202,-1.90704 -0.3613,-3.59067 -0.44281,-3.74144 -0.0926,-0.17128 -2.45627,1.44565 -6.30167,4.31087 -3.3844,2.52172 -6.17722,4.5612 -6.20627,4.53215 -0.029,-0.029 0.0453,-0.4763 0.16538,-0.99388 0.3348,-1.44411 0.28898,-3.19187 -0.0838,-3.19187 -0.63753,0 -6.92047,4.64724 -7.17314,5.3057 -0.0598,0.15576 0.0542,0.74498 0.25338,1.30938 0.60113,1.70377 0.49365,2.12097 -0.88181,3.42323 -1.4388,1.36224 -8.56299,6.71727 -10.86505,8.16693 -1.81982,1.14598 -2.72242,1.24879 -3.68609,0.41988 l -0.65806,-0.56604 0.9299,-0.79629 c 0.51143,-0.43798 1.41465,-1.24432 2.00717,-1.79188 l 1.07729,-0.99559 -0.53841,-0.54445 c -0.29613,-0.29945 -1.24684,-1.07754 -2.11269,-1.72909 -2.29375,-1.72605 -2.32449,-1.83284 -0.90281,-3.13619 1.54513,-1.41653 9.70982,-7.92356 19.25308,-15.34418 4.18962,-3.25776 7.62216,-5.98548 7.62786,-6.06161 0.006,-0.0762 -1.45607,-0.24527 -3.24836,-0.37586 -3.79281,-0.27635 -4.63611,-0.5839 -5.71302,-2.08346 -0.40826,-0.56851 -0.7423,-1.07904 -0.7423,-1.13454 0,-0.0555 2.85202,-0.17204 6.33782,-0.25901 4.06562,-0.10139 6.76253,-0.27201 7.52245,-0.47579 1.25139,-0.33557 2.89791,-1.10438 3.94589,-1.84244 0.34589,-0.24361 0.74922,-0.44292 0.89631,-0.44292 0.14707,0 1.35672,0.91895 2.68809,2.04213 1.33138,1.12318 2.94368,2.39675 3.58291,2.83017 1.13278,0.76808 1.18074,0.77847 1.8923,0.41051 0.40154,-0.20763 1.5844,-1.00513 2.62862,-1.77222 l 1.89854,-1.39469 0.11847,2.1998 c 0.0861,1.59871 0.24407,2.40744 0.57816,2.95965 0.42009,0.69438 3.44563,3.3864 3.80594,3.3864 0.0845,0 0.75846,-0.46536 1.49786,-1.03412 1.69547,-1.30423 3.60546,-2.5198 3.95927,-2.5198 0.34003,0 4.0579,2.99558 10.97553,8.84325 13.86168,11.71768 20.65193,17.86802 20.64771,18.70186 -8.8e-4,0.22928 -0.42453,0.70906 -0.94083,1.06617 -0.5163,0.35712 -0.9373,0.75592 -0.93555,0.88624 0.002,0.1303 0.74395,0.82331 1.64934,1.54002 0.9054,0.71671 1.64625,1.47816 1.64634,1.69211 8e-5,0.21394 -0.47962,0.92262 -1.06601,1.57483 -0.58641,0.65222 -1.06619,1.28377 -1.06619,1.40347 0,0.11968 1.39689,2.18307 3.1042,4.58527 3.83261,5.39259 5.66214,8.1306 5.66214,8.47386 0,0.26524 -2.4628,2.00313 -4.59181,3.24026 l -1.15637,0.67194 0.14272,5.11252 c 0.1533,5.49179 -0.0518,10.47714 -0.4362,10.59914 -0.13032,0.0414 -0.87057,-0.27724 -1.64501,-0.70801 l 0,0 z m -8.26215,-16.28371 c 1.07173,-0.40337 2.40983,-1.88117 2.90733,-3.21087 1.35006,-3.60835 0.58835,-9.61394 -2.03683,-16.05899 -1.2431,-3.05192 -2.44522,-5.18869 -4.5237,-8.04085 -1.87446,-2.5722 -2.27875,-3.46249 -1.95686,-4.30913 0.12946,-0.3405 0.23537,-0.77997 0.23537,-0.97664 0,-0.84689 -5.52289,-5.77172 -6.47264,-5.77172 -0.3196,0 -0.39827,0.23238 -0.39827,1.17631 0,1.50766 -0.27986,1.65599 -2.72467,1.44405 -3.36729,-0.29191 -5.06677,0.45459 -6.17041,2.71037 -1.25083,2.5566 -1.02145,7.23213 0.59795,12.18768 2.76013,8.44633 9.24274,16.94282 15.11037,19.80455 1.00905,0.49213 2.10118,0.97595 2.42695,1.07517 0.88013,0.26803 2.25,0.2544 3.00541,-0.0299 l 0,0 z"
       style="fill:#fffcfc;fill-opacity:1;fill-rule:evenodd;stroke:none" />
    <path
       id="path4584"
       d="m 953.12675,-593.65072 c -0.46265,-0.41999 -3.00464,-2.62813 -5.64886,-4.90701 l -4.8077,-4.14339 0.90119,-0.18724 c 0.49564,-0.10296 2.23447,-0.15756 3.86409,-0.1213 l 2.96291,0.0659 1.94676,4.85702 c 1.07072,2.67136 1.95382,4.93698 1.96248,5.03472 0.0307,0.34795 -0.35153,0.15412 -1.18087,-0.59873 z"
       style="fill:#fffcfc;fill-opacity:1;fill-rule:evenodd;stroke:none" />
    <path
       id="path4586"
       d="m 952.72407,-558.21312 c -0.75385,-0.1452 -0.6613,-0.40783 0.23692,-0.67227 1.1207,-0.32993 1.64747,-1.54551 1.6387,-3.78138 -0.0278,-7.09429 -7.65012,-18.36114 -12.42177,-18.36114 -1.15975,0 -1.73331,0.30833 -2.34209,1.259 l -0.48341,0.75489 0.13551,-1.12059 c 0.55011,-4.54941 3.89475,-4.86355 8.35824,-0.78502 6.11302,5.58577 10.64673,16.6835 8.62995,21.12461 -0.71202,1.5679 -1.68811,1.97945 -3.75205,1.5819 z"
       style="fill:#fffcfc;fill-opacity:1;fill-rule:evenodd;stroke:none" />
    <path
       id="path4588"
       d="m 948.92055,-566.03409 -2.67812,-1.84432 0.14909,-3.31699 c 0.082,-1.82434 0.21011,-3.5737 0.28469,-3.88746 0.12873,-0.5417 0.15173,-0.54839 0.45589,-0.13242 0.23136,0.31639 0.3214,1.3304 0.32418,3.65054 l 0.003,3.21248 1.63351,1.14688 c 1.97178,1.38436 2.69319,2.11841 2.5857,2.63095 -0.062,0.29549 -0.70157,-0.043 -2.75879,-1.45966 z"
       style="fill:#fffcfc;fill-opacity:1;fill-rule:evenodd;stroke:none" />
    <path
       id="path4590"
       d="m 964.55863,-536.51709 c -1.61718,-0.94265 -1.88793,-1.38874 -2.34124,-3.85746 -0.3293,-1.79337 -0.47857,-2.14331 -1.23201,-2.88815 -3.13184,-3.09611 -24.23405,-19.89368 -26.89634,-21.40977 l -1.0271,-0.58489 -0.84449,0.64413 c -0.46447,0.35427 -1.04542,0.64413 -1.29099,0.64413 -0.24556,0 -2.11848,-1.33237 -4.16204,-2.9608 l -3.71555,-2.96081 0,-7.74528 0,-7.74527 0.65155,0.58997 c 0.35835,0.32449 1.55301,1.42287 2.6548,2.44083 2.27604,2.10289 3.00729,2.54457 3.34413,2.01987 0.23308,-0.36307 2.21724,-5.40293 2.96696,-7.53621 l 0.44671,-1.27108 -4.02514,-3.88643 c -5.42174,-5.23492 -5.8946,-5.62386 -6.61686,-5.44259 -0.67798,0.17017 -2.98353,1.72058 -8.3781,5.63407 -2.12409,1.54091 -3.96324,2.80167 -4.08701,2.80167 -0.12374,0 -0.22484,-0.39981 -0.22466,-0.88848 7.1e-4,-1.71714 -0.55395,-5.98242 -0.7779,-5.98242 -0.27545,0 -2.77831,1.74346 -8.05818,5.61326 -2.18829,1.60388 -4.00981,2.91613 -4.04782,2.91613 -0.038,0 -0.0197,-0.85294 0.0406,-1.89542 0.0932,-1.61029 0.0538,-1.89542 -0.2619,-1.89542 -0.52589,0 -4.35249,2.62908 -5.98204,4.10998 l -1.36912,1.24423 0.27703,1.10019 c 0.47106,1.87076 0.37615,2.29818 -0.74996,3.37719 -1.91133,1.83137 -9.97295,7.83944 -11.75652,8.76177 -0.9477,0.49007 -1.97636,0.45362 -2.64978,-0.0939 l -0.55933,-0.45477 1.51937,-1.38142 c 0.83565,-0.75979 1.71525,-1.52074 1.95465,-1.69102 0.23942,-0.17028 0.43528,-0.38691 0.43528,-0.48142 0,-0.0945 -1.01897,-1.00357 -2.26438,-2.02017 -1.48448,-1.21174 -2.23826,-1.98408 -2.1885,-2.24244 0.095,-0.49335 3.26469,-3.15398 11.41864,-9.58481 13.27279,-10.46794 16.13698,-12.76041 16.21368,-12.97727 0.0434,-0.12283 -0.2443,-0.22331 -0.63941,-0.22331 -1.74495,0 -6.33976,-0.7578 -6.95439,-1.14696 -0.58123,-0.36802 -1.92893,-1.93364 -1.78181,-2.06994 0.0311,-0.0288 2.81697,-0.17261 6.19093,-0.31965 3.37397,-0.14705 6.6258,-0.37565 7.2263,-0.50802 0.6005,-0.13237 1.92146,-0.66252 2.93549,-1.17811 1.01401,-0.5156 1.93617,-0.93744 2.04925,-0.93744 0.11306,0 1.57569,1.07603 3.25027,2.39118 4.51447,3.54547 3.95112,3.42682 6.85267,1.44335 l 2.4338,-1.66371 0.1508,1.81695 c 0.2107,2.5384 0.65464,3.41758 2.54894,5.04797 0.88767,0.76399 1.72547,1.38907 1.86175,1.38907 0.13631,0 1.3504,-0.7602 2.69799,-1.68934 1.90152,-1.31105 2.57416,-1.65701 3.00387,-1.5449 0.6173,0.16106 6.64788,5.08285 15.24321,12.44057 10.0238,8.58055 15.62713,13.70813 15.89204,14.54277 0.12811,0.40368 -0.0204,0.66672 -0.69758,1.23523 -0.47319,0.39729 -0.86029,0.82896 -0.86022,0.95927 8e-5,0.13032 0.69311,0.8566 1.54005,1.61399 0.84694,0.7574 1.5399,1.51644 1.5399,1.68678 0,0.17034 -0.44066,0.86316 -0.97924,1.53958 -0.82713,1.03884 -0.94186,1.31045 -0.7386,1.74867 0.13234,0.28535 1.83854,2.81918 3.79156,5.63074 1.953,2.81157 3.80467,5.56019 4.11482,6.10805 l 0.56391,0.99613 -0.59233,0.47078 c -0.32577,0.25892 -1.60364,1.11048 -2.8397,1.89237 l -2.24738,1.42163 0.0774,6.09675 c 0.0822,6.4684 -0.0883,9.53568 -0.52957,9.527 -0.14604,-0.002 -0.8306,-0.3346 -1.52124,-0.73717 l 0,0 z m -7.91349,-16.17772 c 0.99117,-0.51928 2.10201,-1.79779 2.69367,-3.10028 0.46958,-1.03374 0.53903,-1.57698 0.54522,-4.2647 0.008,-3.40906 -0.34008,-5.44925 -1.55734,-9.13165 -1.11225,-3.36473 -2.85189,-6.87428 -4.92146,-9.92859 -2.54548,-3.75665 -2.68202,-4.05188 -2.50185,-5.41003 l 0.14944,-1.12649 -2.00817,-1.92792 c -2.29964,-2.20774 -3.85197,-3.39441 -4.44038,-3.39441 -0.31032,0 -0.44527,0.28254 -0.56459,1.1821 -0.18677,1.40796 -0.12555,1.38436 -3.83286,1.47699 -2.46393,0.0616 -2.67923,0.10665 -3.49814,0.73184 -0.47994,0.36642 -1.16427,1.21937 -1.52072,1.89541 -0.61829,1.17264 -0.64773,1.38178 -0.64012,4.54617 0.007,2.83254 0.10059,3.66303 0.64228,5.68627 1.48556,5.54867 4.33465,10.91235 8.37509,15.76691 2.2136,2.65961 4.85659,4.80273 7.65618,6.20814 1.84093,0.92416 2.46911,1.1254 3.5129,1.1254 0.69908,0 1.55897,-0.15083 1.91085,-0.33516 l 0,0 z"
       style="fill:#fffcfc;fill-opacity:1;fill-rule:evenodd;stroke:none" />
    <path
       id="path4594"
       d="m 883.27269,-557.48456 c -1.20025,-0.84068 -1.541,-3.19906 -0.8527,-5.90167 0.44439,-1.74488 2.26109,-5.3626 3.80252,-7.57224 2.69238,-3.85952 7.68788,-8.2115 10.77005,-9.38263 2.79108,-1.06053 4.60295,-0.16926 5.07868,2.49822 l 0.16662,0.93422 -0.70671,-0.75652 c -0.62441,-0.66843 -0.85424,-0.7565 -1.97396,-0.75633 -5.11924,7.6e-4 -13.53518,9.2945 -14.72928,16.26558 -0.33143,1.93486 0.036,3.23758 1.09543,3.88355 0.41641,0.25389 0.94369,0.46203 1.17173,0.46251 0.69562,0.002 0.46174,0.40609 -0.32577,0.5636 -1.34003,0.268 -2.92832,0.15976 -3.49661,-0.23829 l 0,0 z"
       style="fill:#fffcfc;fill-opacity:1;fill-rule:evenodd;stroke:none" />
    <path
       id="path4596"
       d="m 871.91459,-554.492 -3.86717,-3.72348 3.98564,-3.56799 3.98563,-3.56799 0.0632,5.7386 c 0.0348,3.15623 -0.0185,6.43738 -0.11845,7.29146 l -0.18173,1.55285 -3.86718,-3.72345 z"
       style="fill:#fffcfc;fill-opacity:1;fill-rule:evenodd;stroke:none" />
    <path
       id="path4598"
       d="m 880.80592,-532.97096 -0.89905,-0.73431 2.5962,-1.73483 c 1.42791,-0.95416 2.64611,-1.81959 2.70712,-1.92319 0.061,-0.10363 0.18735,-1.44044 0.28078,-2.97076 0.13979,-2.28974 0.11069,-2.80512 -0.16432,-2.91064 -0.1838,-0.0705 -1.58767,0.63588 -3.11971,1.5698 -2.49722,1.52229 -2.84109,1.66832 -3.32222,1.41082 -0.79903,-0.42763 -1.93543,-1.37547 -1.79984,-1.50121 0.18054,-0.16744 18.71662,-12.32253 25.88223,-16.97235 l 6.33566,-4.11127 0.0614,-12.11033 0.0614,-12.11033 2.76064,2.60621 2.76064,2.6062 0.0233,7.95777 c 0.0128,4.37677 -0.0465,10.98758 -0.13202,14.6907 l -0.15526,6.73294 -2.74711,1.69662 c -1.5109,0.93313 -3.13089,1.87762 -3.59999,2.09884 -0.84172,0.39698 -0.86576,0.39372 -1.83619,-0.24849 -0.54081,-0.35789 -0.9833,-0.72977 -0.9833,-0.82641 0,-0.0967 1.09284,-0.93706 2.42851,-1.86761 1.33568,-0.93056 2.59766,-1.82353 2.8044,-1.9844 0.47506,-0.36963 0.73252,-2.91996 0.53303,-5.27993 l -0.14563,-1.72269 -3.27794,2.17044 -3.27796,2.17042 -0.0164,2.48775 -0.0165,2.48774 -8.10439,5.11638 -8.1044,5.11637 -0.0676,2.41662 -0.0676,2.41663 -3.03859,2.00335 c -1.67122,1.10183 -3.13344,1.99976 -3.24936,1.99538 -0.11591,-0.004 -0.61533,-0.33837 -1.1098,-0.74223 l 0,0 z"
       style="fill:#fffcfc;fill-opacity:1;fill-rule:evenodd;stroke:none" />
    <path
       id="path4520"
       d="m 876.7421,-379.81678 c -4.85396,-0.0573 -5.7455,-0.12165 -5.7455,-0.41453 0,-0.19066 0.2932,-0.40798 0.65156,-0.48294 4.7191,-0.98715 5.94045,-1.6604 6.81671,-3.75758 0.68778,-1.64605 0.86907,-6.40552 0.76357,-20.04487 -0.0906,-11.72041 -0.14703,-13.29111 -0.51865,-14.45259 -0.76551,-2.39256 -2.70228,-3.70724 -6.15957,-4.18112 -0.80338,-0.11013 -1.07976,-0.25176 -1.07976,-0.5534 0,-0.48949 2.01461,-0.63336 12.08332,-0.86292 5.46859,-0.12466 6.95332,-0.0837 9.24018,0.25531 4.54354,0.67344 7.31351,1.77037 9.36145,3.70723 1.55399,1.46971 2.37601,2.98447 2.73344,5.03699 0.3607,2.07122 0.16947,3.45264 -0.733,5.29555 -1.25914,2.57123 -4.46555,4.76363 -8.81491,6.0272 -1.00991,0.29341 -1.83619,0.61461 -1.83619,0.71379 0,0.0991 0.45312,0.2971 1.00694,0.43982 7.51941,1.93771 11.90739,4.91076 13.10088,8.87639 0.45189,1.50153 0.43923,4.34482 -0.0265,5.94684 -0.49726,1.7105 -1.94011,3.81126 -3.35751,4.88845 -3.62456,2.75459 -8.56944,3.79705 -17.47627,3.68425 -2.34558,-0.0297 -6.85017,-0.0846 -10.0102,-0.12187 l 0,0 z m 17.35496,-1.56614 c 4.45807,-1.19085 6.98021,-4.51319 6.98681,-9.20349 0.008,-5.47474 -4.56472,-10.65994 -10.18534,-11.55038 -1.71282,-0.27136 -4.79308,-0.32163 -5.64998,-0.0922 l -0.55603,0.14886 0.0971,8.08114 c 0.0939,7.80342 0.11631,8.13001 0.65416,9.50272 0.66711,1.70258 1.56792,2.60703 3.05145,3.06375 1.4058,0.43279 4.07871,0.45647 5.60177,0.0497 z m -6.75243,-22.18772 c 2.92576,-0.29943 4.28189,-0.62058 6.13827,-1.45361 2.10674,-0.94538 3.3551,-2.04545 4.2708,-3.76347 1.39061,-2.60904 1.23891,-6.63736 -0.35221,-9.35239 -1.54999,-2.64487 -5.20579,-4.5886 -9.34609,-4.96918 -0.84701,-0.0778 -1.93984,-0.19234 -2.4285,-0.25439 l -0.88848,-0.11285 0,10.07223 c 0,5.53973 0.08,10.0704 0.17769,10.06813 0.0978,-0.002 1.19056,-0.10777 2.42852,-0.23447 z"
       style="opacity:0.75;fill:#fffcfc;fill-opacity:1;fill-rule:evenodd;stroke:none" />
    <path
       id="path4522"
       d="m 823.13719,-379.4956 c -6.85931,-1.35514 -10.53364,-4.46999 -12.14004,-10.29152 -0.47372,-1.71672 -0.50979,-2.56248 -0.65365,-15.3219 -0.11013,-9.77328 -0.23382,-13.75502 -0.44748,-14.41013 -0.68386,-2.09678 -2.62565,-3.36962 -6.05039,-3.96601 -1.27669,-0.22233 -1.55808,-0.35252 -1.55808,-0.72086 0,-0.43512 0.36092,-0.44954 11.25407,-0.44954 10.92366,0 11.25407,0.0132 11.25407,0.45304 0,0.34977 -0.22951,0.48971 -1.00694,0.614 -2.11244,0.3377 -4.12877,0.9143 -5.21377,1.49096 -0.90506,0.48102 -1.25471,0.85935 -1.77696,1.92279 l -0.6502,1.32393 -0.0743,11.13562 c -0.0461,6.89316 0.0204,11.84073 0.17458,12.98642 0.34491,2.56396 1.22912,4.95258 2.54762,6.88227 2.66862,3.90568 7.02147,5.84963 13.13,5.86381 8.34067,0.0193 12.18382,-3.85993 13.03619,-13.15872 0.37469,-4.08769 0.14295,-20.43175 -0.31435,-22.16936 -0.99108,-3.76587 -3.04541,-5.43473 -7.59079,-6.16646 -1.52736,-0.24588 -1.83619,-0.36983 -1.83619,-0.73695 0,-0.42316 0.39062,-0.44135 9.47711,-0.44135 9.17394,0 9.47712,0.0145 9.47712,0.45304 0,0.34925 -0.23064,0.49063 -1.00694,0.61722 -1.44892,0.23627 -3.14818,1.22819 -3.80236,2.21956 -1.4329,2.17149 -1.71919,4.55547 -2.06606,17.20444 -0.25783,9.40175 -0.45762,11.98871 -1.09062,14.12107 -0.86287,2.90677 -2.67042,5.69573 -4.78627,7.38496 -1.30661,1.04319 -3.89959,2.27808 -5.93292,2.82553 -2.28687,0.61572 -9.88652,0.82129 -12.35237,0.33414 z"
       style="opacity:0.75;fill:#fffcfc;fill-opacity:1;fill-rule:evenodd;stroke:none" />
    <path
       id="path4524"
       d="m 948.57344,-379.50998 c -2.28086,-0.43628 -4.85083,-1.35753 -6.4277,-2.30412 -1.69299,-1.01628 -3.61307,-3.13866 -4.53654,-5.01451 -1.504,-3.05503 -1.51835,-3.20903 -1.68157,-18.04348 -0.13459,-12.23176 -0.1892,-13.61656 -0.57927,-14.68952 -0.23687,-0.65156 -0.60612,-1.38505 -0.82059,-1.63 -0.95424,-1.08992 -3.06698,-1.98464 -5.66155,-2.39762 -0.77768,-0.12379 -1.00695,-0.26342 -1.00695,-0.61329 0,-0.43974 0.3304,-0.45304 11.25407,-0.45304 10.86074,0 11.25408,0.0156 11.25408,0.44588 0,0.37698 -0.34959,0.50882 -2.26251,0.85325 -1.41417,0.25462 -2.81336,0.68709 -3.73161,1.15339 -1.2454,0.6324 -1.55931,0.9264 -2.06143,1.93064 l -0.59232,1.18464 0,12.43871 c 0,13.91899 0.0139,14.05869 1.72803,17.37185 2.5157,4.86244 7.12092,7.27671 13.89869,7.28633 3.10981,0.004 4.69255,-0.29125 6.74846,-1.26068 3.95308,-1.86401 5.8374,-5.57934 6.43956,-12.69694 0.39408,-4.65825 0.13266,-18.99357 -0.38742,-21.24385 -0.93264,-4.03535 -2.97856,-5.60561 -8.34769,-6.40689 -0.78117,-0.11658 -1.00694,-0.25185 -1.00694,-0.60329 0,-0.43855 0.30317,-0.45304 9.47711,-0.45304 9.17394,0 9.47711,0.0145 9.47711,0.45304 0,0.34867 -0.23194,0.4917 -1.00694,0.62098 -1.52336,0.25409 -3.16597,1.18531 -3.83968,2.17676 -1.43999,2.11914 -1.6971,4.10529 -2.01754,15.58548 -0.30254,10.83829 -0.53747,13.74156 -1.30866,16.17301 -1.57101,4.95311 -4.99346,8.18558 -10.28133,9.71066 -1.78635,0.5152 -2.6,0.59819 -6.54173,0.66727 -3.10428,0.0544 -5.02173,-0.0205 -6.17714,-0.24162 z"
       style="fill:#fffcfc;fill-opacity:1;fill-rule:evenodd;stroke:none" />
    <path
       id="path4526"
       d="m 1038.623,-379.66659 c -4.5237,-0.42471 -6.9766,-1.44292 -9.4611,-3.9274 -2.7379,-2.73792 -6.0506,-7.4281 -8.7535,-12.39331 -2.2647,-4.16013 -3.2231,-4.77849 -7.9186,-5.10934 l -2.2036,-0.15527 0.071,7.90395 c 0.071,7.89043 0.072,7.90597 0.6635,9.08824 0.918,1.83543 2.4725,2.62531 6.5034,3.30448 1.2334,0.20782 1.6903,0.38575 1.7471,0.68023 0.071,0.36932 -0.7664,0.39881 -11.3305,0.39881 -10.5865,0 -11.40175,-0.0288 -11.33012,-0.4008 0.0554,-0.2878 0.51112,-0.48437 1.61663,-0.69733 3.13569,-0.60402 4.68289,-1.42844 5.43029,-2.89338 0.8848,-1.73441 0.998,-4.16744 0.9111,-19.58281 -0.075,-13.36793 -0.1211,-14.80677 -0.5093,-15.99263 -0.4455,-1.36115 -1.2733,-2.4347 -2.2787,-2.95508 -0.5624,-0.29107 -2.13239,-0.65916 -4.08705,-0.95822 -0.50111,-0.0766 -0.88848,-0.27017 -0.88848,-0.44381 0,-0.34268 2.61859,-0.49314 13.39113,-0.76943 6.6648,-0.17093 9.5979,0.0435 12.4263,0.9086 3.4871,1.06655 6.0214,3.00975 7.263,5.56903 0.6048,1.24653 0.6671,1.61464 0.6741,3.97979 0.011,3.63792 -0.5357,5.05757 -2.8257,7.34198 -1.3615,1.35818 -3.8943,3.15356 -4.9411,3.50248 -0.1196,0.0399 1.0296,2.16087 2.5537,4.71334 4.3444,7.27562 7.8135,11.60451 11.5779,14.44727 2.0836,1.57345 5.0999,3.14239 6.9476,3.61373 0.7325,0.18685 1.1751,0.43704 1.2242,0.69191 0.068,0.35307 -0.1784,0.3955 -2.1321,0.36718 -1.2149,-0.0176 -3.1685,-0.12211 -4.3413,-0.23221 z m -23.9297,-23.09218 c 2.4122,-0.4734 5.7459,-2.18811 7.0257,-3.6138 1.946,-2.16773 2.719,-4.69896 2.3351,-7.64608 -0.6604,-5.07034 -3.7974,-7.91534 -10.1425,-9.19839 -0.6905,-0.13963 -1.7833,-0.25388 -2.4285,-0.25388 l -1.173,0 0,10.64463 0,10.64463 1.3624,-0.12581 c 0.7493,-0.0692 2.1086,-0.27228 3.0208,-0.4513 l 0,0 z"
       style="fill:#fffcfc;fill-opacity:1;fill-rule:evenodd;stroke:none" />
    <path
       id="path4528"
       d="m 1097.5559,-381.23855 c -4.4297,-5.08344 -9.6639,-10.75218 -18.2121,-19.72423 -2.5451,-2.67137 -6.5258,-6.85715 -8.846,-9.30175 l -4.2184,-4.44474 0.097,12.97413 c 0.084,11.28723 0.1495,13.17884 0.5037,14.54859 0.8322,3.21749 2.6258,4.91609 6.3031,5.96912 1.3484,0.38613 2.0392,0.703 2.0905,0.95895 0.069,0.34677 -0.8269,0.38228 -9.6548,0.38228 -8.4366,0 -9.7314,-0.0466 -9.7314,-0.35088 0,-0.19299 0.2932,-0.41692 0.6515,-0.49763 4.8117,-1.08365 6.2948,-2.58979 7.3299,-7.44398 0.3853,-1.80685 0.4295,-3.36564 0.4295,-15.16337 0,-14.91686 0.01,-14.85831 -1.7937,-16.90311 -1.1216,-1.27425 -3.4753,-2.5096 -5.9657,-3.13115 -1.2722,-0.3175 -1.5993,-0.49108 -1.5993,-0.84864 0,-0.43005 0.2328,-0.44673 5.3811,-0.38582 l 5.3811,0.0637 16.2386,17.21601 c 8.9312,9.46881 16.3172,17.22524 16.4133,17.2365 0.2355,0.0276 -0.031,-22.19415 -0.3043,-25.3308 -0.2851,-3.27679 -0.5906,-4.16411 -1.8795,-5.45969 -1.1661,-1.17215 -3.2221,-2.08241 -5.8884,-2.60695 -1.1668,-0.22957 -1.4612,-0.37672 -1.4612,-0.7305 0,-0.42499 0.3668,-0.44304 9.0033,-0.44304 8.6684,0 9.0032,0.0166 9.0032,0.44749 0,0.32852 -0.2333,0.49125 -0.8774,0.61209 -1.8745,0.35166 -3.5167,1.61159 -4.1846,3.2104 -1.2838,3.07348 -1.6751,10.67226 -1.4606,28.36683 0.1404,11.5841 0.1165,13.32718 -0.1834,13.32718 -0.1898,0 -1.3438,-1.14614 -2.5645,-2.54698 l 0,0 z"
       style="fill:#fffcfc;fill-opacity:1;fill-rule:evenodd;stroke:none" />
    <path
       id="path4530"
       d="m 836.25494,-352.6295 0,-1.18465 134.69344,0 134.69342,0 0,1.18465 0,1.18462 -134.69342,0 -134.69344,0 0,-1.18462 z"
       style="fill:#fffcfc;fill-opacity:1;fill-rule:evenodd;stroke:none" />
    <path
       id="path4532"
       d="m 741.7991,-352.6295 0,-1.18465 47.14863,0 47.14863,0 0,1.18465 0,1.18462 -47.14863,0 -47.14863,0 0,-1.18462 z"
       style="fill:#fffcfc;fill-opacity:1;fill-rule:evenodd;stroke:none" />
    <path
       id="path4534"
       d="m 785.74921,-305.58136 c -2.75031,-0.68977 -4.09747,-1.63244 -4.93531,-3.45343 -0.44364,-0.96427 -0.50447,-1.67768 -0.63626,-7.46324 -0.0802,-3.51838 -0.23163,-6.58757 -0.33663,-6.82043 -0.24751,-0.54898 -1.1812,-1.01818 -2.44351,-1.22792 -0.63026,-0.10475 -1.00694,-0.29246 -1.00694,-0.50188 0,-0.27883 0.94708,-0.33455 5.68626,-0.33455 4.68954,0 5.68628,0.0575 5.68628,0.32849 0,0.20835 -0.39541,0.38777 -1.08121,0.49061 -0.68908,0.10329 -1.35503,0.40665 -1.8362,0.8363 l -0.75498,0.67415 -0.0778,5.40997 c -0.10385,7.2186 0.15736,8.31491 2.29893,9.64859 1.91204,1.19074 5.08684,1.42222 6.981,0.50903 0.96856,-0.46697 1.89705,-1.66318 2.32086,-2.99008 0.30905,-0.96759 0.28394,-10.29954 -0.0315,-11.70854 -0.27458,-1.22642 -1.08651,-1.90481 -2.71627,-2.26955 -0.79306,-0.17747 -1.31195,-0.41925 -1.31195,-0.61128 0,-0.2542 0.87616,-0.31769 4.38316,-0.31769 3.48723,0 4.38317,0.0644 4.38317,0.31483 0,0.17315 -0.45289,0.51966 -1.00642,0.77001 -1.42942,0.6465 -1.64457,1.26817 -1.87791,5.42629 -0.48329,8.61261 -0.72781,9.85572 -2.23094,11.3415 -1.97538,1.95258 -6.07329,2.79715 -9.45579,1.94882 z"
       style="fill:#fffcfc;fill-opacity:1;fill-rule:evenodd;stroke:none" />
    <path
       id="path4536"
       d="m 830.77991,-306.60629 c -0.75817,-0.87959 -4.00358,-4.36591 -7.21197,-7.74738 -5.06954,-5.34295 -5.84461,-6.0721 -5.91845,-5.56779 -0.0468,0.31916 -0.0405,2.92588 0.0138,5.79271 0.0806,4.25515 0.1707,5.34843 0.49049,5.95306 0.39183,0.74085 1.36947,1.276 2.95691,1.61858 0.42937,0.0926 0.77001,0.31506 0.77001,0.50273 0,0.27958 -0.80226,0.33657 -4.73856,0.33657 -3.85794,0 -4.73855,-0.0603 -4.73855,-0.32511 0,-0.19702 0.37995,-0.38587 0.96439,-0.47932 0.53042,-0.0848 1.21264,-0.31688 1.51607,-0.51569 1.09034,-0.71442 1.19214,-1.42307 1.18879,-8.27546 -0.002,-5.78395 -0.0453,-6.47516 -0.444,-7.2121 -0.57312,-1.05955 -1.2398,-1.60581 -2.33678,-1.91465 -0.50728,-0.14282 -0.88847,-0.39872 -0.88847,-0.59642 0,-0.28758 0.552,-0.34398 3.25775,-0.33287 l 3.25777,0.0134 1.38603,1.70434 c 0.76233,0.93739 3.38582,3.89 5.82998,6.56136 2.44416,2.67135 4.71669,5.17687 5.05008,5.5678 0.33339,0.39093 0.68081,0.63631 0.77205,0.54529 0.0913,-0.0911 0.0703,-2.71302 -0.0465,-5.82665 -0.17922,-4.77439 -0.27809,-5.76125 -0.6312,-6.30015 -0.46591,-0.71107 -1.48282,-1.23216 -2.824,-1.44708 -0.55426,-0.0888 -0.88848,-0.27203 -0.88848,-0.48703 0,-0.28883 0.69086,-0.34465 4.26471,-0.34465 3.32978,0 4.26469,0.0672 4.26469,0.30639 0,0.16852 -0.33783,0.40841 -0.75072,0.5331 -0.41289,0.12467 -0.97264,0.52752 -1.24387,0.89521 -0.47536,0.64442 -0.49555,0.98187 -0.55961,9.35864 -0.0594,7.7726 -0.108,8.72139 -0.45991,8.98629 -0.64808,0.48784 -0.86386,0.36571 -2.30233,-1.30311 l 0,0 z"
       style="fill:#fffcfc;fill-opacity:1;fill-rule:evenodd;stroke:none" />
    <path
       id="path4538"
       d="m 848.17968,-306.0258 c 0,-0.185 0.55379,-0.42237 1.38675,-0.59442 0.79149,-0.16348 1.57042,-0.48938 1.81465,-0.75926 0.61776,-0.68261 0.90083,-4.7499 0.73179,-10.51469 -0.17023,-5.80521 -0.24967,-6.01572 -2.46154,-6.52317 -0.8939,-0.20508 -1.47165,-0.46087 -1.47165,-0.65155 0,-0.25189 1.12359,-0.31392 5.68626,-0.31392 4.49561,0 5.68627,0.0643 5.68627,0.30672 0,0.17428 -0.57902,0.45565 -1.34077,0.65156 -2.32482,0.5979 -2.31838,0.57649 -2.40722,8.00254 -0.0416,3.47655 -0.006,6.79147 0.0795,7.36648 0.20967,1.41301 1.08643,2.26875 2.54921,2.4881 0.73798,0.11069 1.11925,0.28397 1.11925,0.50872 0,0.28708 -0.89738,0.34088 -5.68627,0.34088 -4.50753,0 -5.68626,-0.0638 -5.68626,-0.30799 z"
       style="fill:#fffcfc;fill-opacity:1;fill-rule:evenodd;stroke:none" />
    <path
       id="path4540"
       d="m 881.25916,-305.19856 c -0.0652,-0.10531 -1.78135,-3.97024 -3.81386,-8.58864 -2.03251,-4.6184 -3.95218,-8.78589 -4.26591,-9.26106 -0.3825,-0.57933 -0.92594,-0.99974 -1.64947,-1.27607 -0.59345,-0.22664 -1.07903,-0.55752 -1.07903,-0.73529 0,-0.26295 0.94942,-0.32319 5.09395,-0.32319 4.34806,0 5.09395,0.0515 5.09395,0.35197 0,0.22019 -0.40503,0.45397 -1.0817,0.62437 -0.66512,0.16748 -1.22099,0.48494 -1.44338,0.82433 -0.3266,0.49847 -0.32145,0.67335 0.053,1.80415 0.70665,2.13334 4.70936,11.45145 4.95971,11.54593 0.28934,0.10923 3.76246,-8.55637 4.29613,-10.71894 0.21107,-0.8553 0.31546,-1.82725 0.23197,-2.1599 -0.1693,-0.67453 -1.02015,-1.20024 -2.34471,-1.44873 -0.51389,-0.0964 -0.88029,-0.30209 -0.88029,-0.49416 0,-0.2689 0.8011,-0.32902 4.38317,-0.32902 4.84308,0 5.28715,0.15923 3.18875,1.1434 -1.59417,0.74769 -2.21082,1.87204 -6.28969,11.46816 -2.89187,6.80355 -3.35977,7.75516 -3.81522,7.75939 -0.28551,0.002 -0.57237,-0.0814 -0.63748,-0.1867 l 0,0 z"
       style="fill:#fffcfc;fill-opacity:1;fill-rule:evenodd;stroke:none" />
    <path
       id="path4542"
       d="m 904.09464,-306.02291 c 0,-0.18851 0.54583,-0.42361 1.38674,-0.59731 0.7803,-0.16117 1.57088,-0.48988 1.8078,-0.75168 0.56176,-0.62074 0.80768,-3.11089 0.80768,-8.17842 0,-5.05541 -0.24626,-7.55804 -0.80441,-8.17478 -0.23889,-0.26398 -1.01297,-0.57875 -1.80779,-0.73512 -0.88586,-0.17428 -1.39002,-0.39118 -1.39002,-0.59803 0,-0.26882 1.47039,-0.32456 8.55999,-0.32456 l 8.56,0 -0.16511,1.95464 c -0.0908,1.07506 -0.22276,2.19455 -0.2932,2.48774 -0.21621,0.89974 -0.68224,0.59434 -1.00302,-0.65731 -0.49317,-1.92418 -1.31333,-2.39192 -4.66691,-2.66155 -1.49584,-0.12027 -2.87506,-0.15906 -3.06489,-0.0862 -0.28258,0.10844 -0.34517,0.82727 -0.34517,3.96476 l 0,3.8323 2.44604,-0.12484 c 2.91227,-0.14863 3.72767,-0.49166 4.34358,-1.8272 0.24017,-0.5208 0.5856,-0.94967 0.7676,-0.95303 0.26806,-0.006 0.30182,0.33824 0.17769,1.80659 -0.0843,0.99699 -0.15323,2.59626 -0.15323,3.55392 0,0.95766 -0.1016,1.74121 -0.22583,1.74121 -0.12422,0 -0.43404,-0.47067 -0.68849,-1.04592 -0.25447,-0.57525 -0.71259,-1.18065 -1.01805,-1.34534 -0.30544,-0.16468 -1.7015,-0.34743 -3.10234,-0.40608 l -2.54697,-0.10665 0,2.99964 c 0,4.30042 0.45579,5.1406 2.9616,5.45924 1.55653,0.19793 3.56115,-0.2059 4.67232,-0.94123 1.00601,-0.66574 1.92436,-1.9897 2.36953,-3.41605 0.19789,-0.63407 0.43828,-0.96067 0.70707,-0.96067 0.35909,0 0.39018,0.18912 0.26286,1.59926 -0.0794,0.87958 -0.3153,2.29227 -0.52417,3.13929 l -0.37978,1.54003 -8.82556,0.0621 c -7.15681,0.0504 -8.82556,0.003 -8.82556,-0.24875 z"
       style="fill:#fffcfc;fill-opacity:1;fill-rule:evenodd;stroke:none" />
    <path
       id="path4544"
       d="m 953.25716,-305.81395 c -2.5181,-0.62229 -3.76802,-1.80239 -6.10305,-5.76211 -0.78581,-1.33256 -1.60802,-2.58507 -1.82714,-2.78337 -0.21913,-0.19831 -0.89672,-0.45366 -1.50576,-0.56744 l -1.10733,-0.20687 0,3.1797 c 0,4.34945 0.46661,5.11356 3.32972,5.45265 0.76242,0.0903 1.1719,0.25145 1.1719,0.46118 0,0.26349 -1.10412,0.3224 -6.04166,0.3224 -5.04528,0 -6.04166,-0.0552 -6.04166,-0.33456 0,-0.20942 0.37668,-0.39716 1.00695,-0.50188 1.5928,-0.26464 2.25759,-0.71339 2.53461,-1.71091 0.14351,-0.51673 0.2472,-3.64058 0.24797,-7.47046 0.002,-8.26984 -0.0464,-8.42896 -2.66412,-8.82147 -0.72031,-0.108 -1.12541,-0.28699 -1.12541,-0.49723 0,-0.27087 0.98713,-0.32819 5.62703,-0.32671 3.09488,8.8e-4 6.30628,0.11204 7.13646,0.24671 2.79328,0.45325 4.16348,1.5667 4.44369,3.61102 0.26629,1.94284 -0.86798,3.94433 -2.79138,4.92558 -0.501,0.2556 -0.91092,0.51652 -0.91092,0.57984 0,0.0633 0.61305,1.14028 1.36234,2.39324 2.21499,3.70395 5.02646,6.40688 7.58581,7.29295 0.47173,0.16332 0.89923,0.42155 0.95,0.57387 0.12541,0.37625 -3.69275,0.33565 -5.27805,-0.0562 z m -7.56025,-10.91704 c 1.6409,-0.72851 2.30896,-1.71123 2.41183,-3.5478 0.0628,-1.12238 -0.0229,-1.59592 -0.39723,-2.19211 -0.60885,-0.96978 -1.99553,-1.67661 -3.677,-1.87423 l -1.32063,-0.15521 0,4.28241 0,4.28244 0.88847,-0.13002 c 0.48867,-0.0716 1.43122,-0.37097 2.09456,-0.66548 z"
       style="fill:#fffcfc;fill-opacity:1;fill-rule:evenodd;stroke:none" />
    <path
       id="path4546"
       d="m 972.44831,-305.59842 c -1.51254,-0.41277 -2.96139,-1.02313 -2.96236,-1.24797 -8.8e-4,-0.22947 -0.68393,-4.28661 -0.83698,-4.97231 -0.0887,-0.39763 -0.0125,-0.53207 0.30013,-0.52905 0.28043,0.002 0.60725,0.43848 0.98752,1.31673 0.31261,0.72198 1.0311,1.82735 1.59666,2.45638 2.99693,3.3333 7.74645,2.66833 7.74645,-1.08456 0,-1.58513 -0.83597,-2.60739 -3.26754,-3.99569 -3.35968,-1.9182 -4.94388,-3.02985 -5.49461,-3.8556 -1.704,-2.55496 -0.33196,-6.03585 2.9969,-7.60316 1.8357,-0.86429 4.92895,-0.88737 6.95975,-0.0519 l 1.39196,0.57264 -0.14808,1.41677 c -0.0814,0.77922 -0.14808,1.88873 -0.14808,2.46557 0,1.53155 -0.64362,1.28963 -1.17899,-0.44313 -0.74495,-2.41111 -2.00196,-3.52785 -3.95077,-3.5099 -1.75408,0.0161 -2.9215,1.23126 -2.92422,3.0437 -0.002,1.92204 0.5221,2.42317 5.75937,5.49772 3.24757,1.9065 4.32549,4.11622 3.35277,6.87319 -0.41878,1.18696 -1.04625,1.93197 -2.30214,2.73335 -1.8715,1.19421 -5.37009,1.60158 -7.87774,0.91725 z"
       style="fill:#fffcfc;fill-opacity:1;fill-rule:evenodd;stroke:none" />
    <path
       id="path4548"
       d="m 995.31184,-306.04237 c 0,-0.20775 0.51269,-0.42544 1.42427,-0.60478 2.27801,-0.44818 2.23488,-0.29307 2.32059,-8.34373 0.0469,-4.4075 -0.0188,-7.14637 -0.18639,-7.76886 -0.29007,-1.07722 -0.91484,-1.5147 -2.55153,-1.78664 -0.63027,-0.10475 -1.00694,-0.29246 -1.00694,-0.50188 0,-0.27883 0.94707,-0.33455 5.68626,-0.33455 4.7392,0 5.6863,0.0557 5.6863,0.33455 0,0.20942 -0.3767,0.39717 -1.007,0.50188 -1.5928,0.26465 -2.2576,0.71339 -2.5346,1.71092 -0.1437,0.51767 -0.247,3.65519 -0.2476,7.52207 -9e-4,8.08528 9e-4,8.0945 2.3084,8.64728 0.8394,0.20113 1.4808,0.48334 1.4808,0.65155 0,0.22947 -1.2892,0.29675 -5.6863,0.29675 -4.65648,0 -5.68626,-0.0588 -5.68626,-0.32456 z"
       style="fill:#fffcfc;fill-opacity:1;fill-rule:evenodd;stroke:none" />
    <path
       id="path4550"
       d="m 1022.0847,-306.02508 c 0,-0.19443 0.5873,-0.40751 1.5993,-0.58027 2.8867,-0.49276 2.9747,-0.84079 2.8562,-11.30103 l -0.072,-6.38385 -1.4216,0.0619 c -3.0677,0.13349 -4.5758,1.017 -5.4772,3.2088 -0.4684,1.13878 -1.0383,1.44993 -1.0383,0.56689 0,-1.39837 0.5681,-5.87785 0.7455,-5.87785 0.1112,0 0.4155,0.21323 0.6761,0.47385 0.4549,0.45492 0.7897,0.47386 8.379,0.47386 7.6884,0 7.9225,-0.0137 8.5418,-0.50087 0.3503,-0.27548 0.682,-0.45561 0.7374,-0.40029 0.055,0.0554 0.252,1.48017 0.4371,3.16631 0.3983,3.62899 0.1644,4.20311 -0.8246,2.02426 -0.9899,-2.18069 -2.4657,-3.03418 -5.4243,-3.13705 l -1.5401,-0.0535 9e-4,7.68383 c 9e-4,8.34049 0.083,8.95183 1.2761,9.56267 0.34,0.17404 1.1779,0.39225 1.8621,0.48491 0.8309,0.11255 1.2438,0.27908 1.2438,0.50164 0,0.27787 -1.0418,0.33315 -6.2785,0.33315 -4.986,0 -6.2786,-0.0633 -6.2786,-0.30727 z"
       style="fill:#fffcfc;fill-opacity:1;fill-rule:evenodd;stroke:none" />
    <path
       id="path4552"
       d="m 1053.1222,-306.0732 c 0,-0.19547 0.1547,-0.35539 0.3438,-0.35539 0.189,0 0.89,-0.11717 1.5577,-0.26036 1.6894,-0.36232 2.0376,-0.99655 2.2466,-4.09195 l 0.1621,-2.40014 -2.3281,-4.7156 c -1.2804,-2.59357 -2.6292,-5.01684 -2.9974,-5.38504 -0.3682,-0.36818 -1.1966,-0.85666 -1.841,-1.08551 -0.6443,-0.22884 -1.1714,-0.55096 -1.1714,-0.71584 0,-0.23224 1.121,-0.29978 4.9754,-0.29978 3.8863,0 4.9755,0.0664 4.9755,0.30346 0,0.1669 -0.4531,0.46011 -1.0069,0.65156 -1.2261,0.42384 -1.3513,0.90767 -0.688,2.6592 0.5931,1.56634 2.8766,6.33675 3.0332,6.33675 0.064,0 0.7682,-1.35939 1.5639,-3.02083 1.1494,-2.40018 1.4502,-3.26423 1.4638,-4.20547 0.017,-1.16784 0,-1.19128 -0.9898,-1.65237 -1.9143,-0.88923 -1.3783,-1.0723 3.1393,-1.0723 3.2722,0 4.1463,0.0658 4.1463,0.31212 0,0.17268 -0.6086,0.50222 -1.3624,0.73765 -1.9547,0.61057 -2.8853,1.71831 -5.3563,6.37627 l -2.0985,3.95586 0.1015,2.66075 c 0.06,1.56925 0.235,2.93533 0.4269,3.33007 0.3944,0.81095 1.2863,1.30312 2.7169,1.49921 0.6743,0.0924 1.0703,0.26627 1.0703,0.46988 0,0.26451 -1.0968,0.32319 -6.0417,0.32319 -5.2124,0 -6.0416,-0.0488 -6.0416,-0.35539 z"
       style="fill:#fffcfc;fill-opacity:1;fill-rule:evenodd;stroke:none" />
    <path
       id="path4554"
       d="m 872.70171,-380.10254 c -1.45766,-0.12538 -1.58677,-0.17366 -1.06618,-0.39872 0.32579,-0.14084 1.17872,-0.39287 1.89542,-0.56007 3.10233,-0.72374 4.62119,-1.86648 5.19541,-3.90883 0.47984,-1.70666 0.75247,-11.56298 0.59966,-21.67889 -0.0818,-5.40788 -0.23981,-10.44262 -0.35138,-11.1883 -0.44642,-2.98384 -1.80586,-4.31615 -5.28272,-5.17727 -1.3815,-0.34216 -2.01023,-0.59724 -1.85491,-0.75254 0.31004,-0.31005 7.30192,-0.62186 14.25112,-0.63554 4.97784,-0.0101 5.86446,0.0496 8.36746,0.56005 3.32834,0.67884 5.6866,1.72806 7.43452,3.30771 2.05092,1.85348 2.95161,3.86052 2.94308,6.55818 -0.0137,4.33848 -2.85548,7.25843 -9.21753,9.47113 -2.19466,0.76328 -2.55059,1.1126 -1.45717,1.43013 2.592,0.75272 5.54115,1.80457 6.73071,2.40058 5.40969,2.71045 7.56361,6.22645 6.78104,11.06917 -0.85397,5.28452 -5.33721,8.50688 -13.17118,9.4669 -2.21365,0.27126 -18.74553,0.29881 -21.79735,0.0363 l 0,0 z m 23.12969,-1.82539 c 2.01362,-0.94753 3.26797,-2.09214 4.19141,-3.82467 3.27936,-6.15273 -0.86192,-14.37353 -8.19304,-16.2639 -1.05614,-0.27233 -2.28706,-0.36356 -4.26469,-0.3161 l -2.78006,0.0667 0.0224,8.34303 0.0224,8.34304 0.76552,1.55499 c 1.19605,2.42953 2.41675,3.00283 6.17897,2.902 2.21417,-0.0593 2.66032,-0.14789 4.05701,-0.80512 l 0,0 z m -6.94929,-21.75214 c 5.9834,-0.89869 9.02446,-3.30273 9.80851,-7.75387 0.52492,-2.98004 -0.7048,-6.87295 -2.72071,-8.61292 -2.12763,-1.83638 -5.33123,-2.98454 -9.23023,-3.30809 l -2.07311,-0.17202 0,9.72268 c 0,5.34749 0.0647,9.89134 0.14381,10.09746 0.18168,0.47346 1.05924,0.47922 4.07173,0.0268 l 0,0 z"
       style="fill:#fffcfc;fill-opacity:1;fill-rule:evenodd;stroke:none" />
    <path
       id="path4556"
       d="m 823.2622,-379.62928 c -6.50826,-1.1894 -10.64549,-4.7021 -12.17087,-10.33365 -0.31434,-1.16052 -0.41725,-3.72795 -0.59284,-14.7907 -0.11686,-7.36253 -0.30758,-13.83667 -0.42382,-14.38699 -0.25165,-1.19146 -1.15166,-2.44141 -2.24402,-3.11651 -0.43573,-0.2693 -1.78449,-0.75518 -2.99725,-1.07974 -2.21349,-0.59237 -2.56593,-0.73867 -2.33519,-0.9694 0.22676,-0.22677 21.8247,-0.13421 22.05343,0.0945 0.25213,0.25215 0.14646,0.2897 -2.67094,0.94892 -3.50667,0.8205 -4.30831,1.32788 -5.35198,3.38747 l -0.61082,1.20539 0.10296,12.34828 c 0.1128,13.5286 0.10721,13.47163 1.61979,16.65715 2.43235,5.12272 7.10834,7.68072 14.07254,7.69836 4.47954,0.0113 7.07791,-0.76147 9.3112,-2.76938 3.63752,-3.27044 4.66383,-9.52883 4.11645,-25.10196 -0.23284,-6.62453 -0.31215,-7.51995 -0.77263,-8.72324 -1.05061,-2.74543 -2.79893,-4.01351 -6.79106,-4.9257 -1.20537,-0.27542 -2.19159,-0.59783 -2.19159,-0.71648 0,-0.3459 18.2109,-0.3332 18.56329,0.0129 0.11081,0.10879 -0.36901,0.36413 -1.06617,0.56738 -1.93504,0.56417 -3.36521,1.58112 -3.96447,2.81904 -1.08497,2.24121 -1.24177,3.9427 -1.93779,21.02543 -0.1407,3.45322 -0.39628,7.08604 -0.56794,8.07293 -0.60153,3.45794 -2.77171,7.13551 -5.35811,9.07972 -1.47954,1.11221 -4.26303,2.37813 -6.08472,2.76731 -1.47738,0.31562 -10.29013,0.48793 -11.70747,0.22891 l 0,0 z"
       style="fill:#fffcfc;fill-opacity:1;fill-rule:evenodd;stroke:none" />
    <path
       id="path4558"
       d="m 742.74681,-380.30093 c 0,-0.30594 0.31192,-0.50813 1.1154,-0.72303 1.48278,-0.39658 3.34597,-1.34396 4.1831,-2.127 1.47634,-1.38092 1.6319,-1.73096 6.99739,-15.74466 6.9239,-18.0841 8.38502,-22.17795 8.41155,-23.56813 0.0131,-0.684 0.13179,-1.24374 0.26383,-1.24386 0.37245,-3.7e-4 2.62325,-1.57626 3.49169,-2.44471 l 0.77999,-0.78 7.52995,20.03338 c 4.14147,11.01835 7.83937,20.67718 8.21756,21.46406 1.16967,2.43372 2.85195,3.76178 5.68405,4.48722 0.6658,0.17055 1.09475,0.42287 1.14277,0.67224 0.0711,0.36904 -0.65087,0.39922 -9.55343,0.39922 -8.5979,0 -9.62211,-0.0396 -9.55373,-0.36945 0.0453,-0.21861 0.73164,-0.58943 1.68092,-0.90822 4.24465,-1.42548 4.3298,-3.30614 0.60988,-13.4711 l -1.45229,-3.96853 -7.6368,0 -7.63679,0 -1.30245,3.61314 c -2.96027,8.21212 -3.33259,11.071 -1.62058,12.44405 0.88471,0.70954 2.19486,1.23248 3.71932,1.48449 2.62109,0.43332 2.69826,0.4569 2.69826,0.82474 0,0.30363 -1.19596,0.35088 -8.8848,0.35088 -8.38418,0 -8.88479,-0.0239 -8.88479,-0.42473 z m 28.66827,-21.25272 c 0,-0.15029 -6.63739,-16.75466 -6.80812,-17.03145 -0.0705,-0.11447 -0.21569,-0.052 -0.32245,0.13871 -0.19619,0.35057 -6.13739,16.71726 -6.13739,16.90716 0,0.0564 2.98529,0.10262 6.63398,0.10262 3.64869,0 6.63398,-0.0526 6.63398,-0.11702 z"
       style="fill:#fffcfc;fill-opacity:1;fill-rule:evenodd;stroke:none" />
  </g>
</svg>
